<?xml version="1.0" encoding="UTF-8"?>
<svg version="1.1" xmlns="http://www.w3.org/2000/svg" width="192" height="192">
<path d="M0 0 C63.36 0 126.72 0 192 0 C192 63.36 192 126.72 192 192 C128.64 192 65.28 192 0 192 C0 128.64 0 65.28 0 0 Z " fill="#F6E8E2" transform="translate(0,0)"/>
<path d="M0 0 C63.36 0 126.72 0 192 0 C192 39.6 192 79.2 192 120 C182.76 120 173.52 120 164 120 C164 121.98 164 123.96 164 126 C165.32 126 166.64 126 168 126 C168 127.32 168 128.64 168 130 C166.35 130 164.7 130 163 130 C163 130.99 163 131.98 163 133 C164.65 133 166.3 133 168 133 C167.67 133.99 167.34 134.98 167 136 C166.01 136 165.02 136 164 136 C164 136.66 164 137.32 164 138 C165.65 138.33 167.3 138.66 169 139 C169 139.66 169 140.32 169 141 C166.03 141 163.06 141 160 141 C159.67 140.34 159.34 139.68 159 139 C158.54625 139.495 158.0925 139.99 157.625 140.5 C156 142 156 142 154 142 C154 157.84 154 173.68 154 190 C153.67 190 153.34 190 153 190 C153 182.41 153 174.82 153 167 C149.7 167 146.4 167 143 167 C143 159.08 143 151.16 143 143 C140.31488281 143.08378906 137.62976563 143.16757813 134.86328125 143.25390625 C132.25532733 143.33136792 129.64732345 143.40686703 127.03930664 143.48217773 C125.23032575 143.53546404 123.42140351 143.59078238 121.61254883 143.64819336 C119.0087549 143.73047869 116.40483582 143.80539339 113.80078125 143.87890625 C112.59268547 143.91945885 112.59268547 143.91945885 111.36018372 143.96083069 C110.5997728 143.98092697 109.83936188 144.00102325 109.0559082 144.02172852 C108.05996391 144.05170677 108.05996391 144.05170677 107.04389954 144.08229065 C105 144 105 144 100 143 C100 137.72 100 132.44 100 127 C101.65 126.67 103.3 126.34 105 126 C105 124.02 105 122.04 105 120 C102.03 120 99.06 120 96 120 C96.144375 121.464375 96.28875 122.92875 96.4375 124.4375 C96.51871094 125.26121094 96.59992188 126.08492188 96.68359375 126.93359375 C96.78930815 128.98662025 96.78930815 128.98662025 98 130 C98.46302251 137.17684887 98.46302251 137.17684887 96.875 140 C94.06836961 141.49686954 92.12242157 141.45535315 89 141 C86.42728552 138.77031412 86.04688091 137.37504726 85.625 134 C86.04688091 130.62495274 86.42728552 129.22968588 89 127 C92.1875 126.75 92.1875 126.75 95 127 C95 124.69 95 122.38 95 120 C86.585 120.495 86.585 120.495 78 121 C77.67 122.65 77.34 124.3 77 126 C78.175625 126.37125 78.175625 126.37125 79.375 126.75 C82 128 82 128 83.375 129.6875 C84.27839983 133.03007937 83.74380117 135.65289473 83 139 C79.26283998 142.73716002 73.06668934 141.86352352 68 142 C58.71084337 141.71084337 58.71084337 141.71084337 56 139 C55.77294922 137.02880859 55.77294922 137.02880859 55.8046875 134.6484375 C55.81113281 133.79765625 55.81757812 132.946875 55.82421875 132.0703125 C55.84097656 131.18085938 55.85773437 130.29140625 55.875 129.375 C55.88402344 128.4778125 55.89304688 127.580625 55.90234375 126.65625 C55.92594868 124.43738678 55.96182038 122.2186603 56 120 C50.06 120 44.12 120 38 120 C38 123.3 38 126.6 38 130 C38.66 130 39.32 130 40 130 C40.33 129.01 40.66 128.02 41 127 C41.99 127 42.98 127 44 127 C44 131.95 44 136.9 44 142 C44.66 142 45.32 142 46 142 C46 137.05 46 132.1 46 127 C48.64 127 51.28 127 54 127 C54 127.99 54 128.98 54 130 C52.02 130 50.04 130 48 130 C48 130.99 48 131.98 48 133 C49.65 133 51.3 133 53 133 C53 133.99 53 134.98 53 136 C51.68 136 50.36 136 49 136 C49 136.66 49 137.32 49 138 C50.65 138.33 52.3 138.66 54 139 C53.67 139.99 53.34 140.98 53 142 C51.35 142 49.7 142 48 142 C47.67 142.99 47.34 143.98 47 145 C46.67 144.34 46.34 143.68 46 143 C41.71 143 37.42 143 33 143 C33.33 137.72 33.66 132.44 34 127 C34.99 127 35.98 127 37 127 C37 124.69 37 122.38 37 120 C31.06 120 25.12 120 19 120 C19 123.3 19 126.6 19 130 C19.99 130 20.98 130 22 130 C22.33 129.01 22.66 128.02 23 127 C25.64 127 28.28 127 31 127 C31 127.99 31 128.98 31 130 C30.34 130 29.68 130 29 130 C29 134.29 29 138.58 29 143 C25.7 143 22.4 143 19 143 C19 146.63 19 150.26 19 154 C18.67 154 18.34 154 18 154 C18 150.37 18 146.74 18 143 C15.03 143 12.06 143 9 143 C9 142.67 9 142.34 9 142 C11.97 142 14.94 142 18 142 C18 134.74 18 127.48 18 120 C15.03 120 12.06 120 9 120 C9 119.67 9 119.34 9 119 C11.97 119 14.94 119 18 119 C18 115.37 18 111.74 18 108 C18.33 108 18.66 108 19 108 C19 111.63 19 115.26 19 119 C31.21 119 43.42 119 56 119 C56 92.27 56 65.54 56 38 C56.33 38 56.66 38 57 38 C57 41.63 57 45.26 57 49 C61.96389093 49.16012551 64.69411651 49.17385103 68.47265625 45.77734375 C69.28605469 44.88144531 70.09945312 43.98554687 70.9375 43.0625 C74.95239615 38.71199333 77.63086144 36.70950414 83.52734375 36.02734375 C87.44941397 35.98397173 91.12598567 36.37515898 95 37 C95 33.37 95 29.74 95 26 C89.8306511 26.40556131 89.8306511 26.40556131 85 28 C85 27.34 85 26.68 85 26 C79.06 26 73.12 26 67 26 C67 25.67 67 25.34 67 25 C79.54 25 92.08 25 105 25 C105 17.41 105 9.82 105 2 C73.32 2 41.64 2 9 2 C9 17.51 9 33.02 9 49 C11.97 49 14.94 49 18 49 C18 45.7 18 42.4 18 39 C18.33 39 18.66 39 19 39 C19 42.3 19 45.6 19 49 C20.464375 48.835 21.92875 48.67 23.4375 48.5 C28.32180947 48.00529818 33.09345165 47.92086212 38 48 C38 48.66 38 49.32 38 50 C31.73 50 25.46 50 19 50 C19 57.26 19 64.52 19 72 C18.67 72 18.34 72 18 72 C18 64.74 18 57.48 18 50 C12.06 50 6.12 50 0 50 C0 33.5 0 17 0 0 Z " fill="#F5E8E2" transform="translate(0,0)"/>
<path d="M0 0 C0.54011719 0.82886719 1.08023438 1.65773437 1.63671875 2.51171875 C3.89543741 5.38271784 3.89543741 5.38271784 7.93359375 5.69921875 C9.43473254 5.72170277 10.93648234 5.71698199 12.4375 5.6875 C13.56381836 5.72907227 13.56381836 5.72907227 14.71289062 5.77148438 C18.98911015 5.81242292 18.98911015 5.81242292 22.43798828 3.58056641 C22.84130371 3.0241748 23.24461914 2.4677832 23.66015625 1.89453125 C24.43230469 0.93933594 25.20445313 -0.01585937 26 -1 C29.95310804 -1.21817416 31.62064323 -0.27541618 34.80859375 2.0390625 C35.67613281 2.89242187 36.54367188 3.74578125 37.4375 4.625 C38.76587891 5.88183594 38.76587891 5.88183594 40.12109375 7.1640625 C42 10 42 10 41.8671875 13.71484375 C40.64823324 18.33259388 40.64823324 18.33259388 38 20 C36.68 20 35.36 20 34 20 C34.39456348 26.00008597 35.49246821 30.54884393 38 36 C38 36.99 38 37.98 38 39 C37.34 39 36.68 39 36 39 C36 41.64 36 44.28 36 47 C35.195625 47.12375 34.39125 47.2475 33.5625 47.375 C32.716875 47.58125 31.87125 47.7875 31 48 C29.75453595 50.49092811 30.2232422 51.41080733 31 54 C32.1446875 54.185625 32.1446875 54.185625 33.3125 54.375 C36 55 36 55 39 57 C39.38818359 58.99951172 39.38818359 58.99951172 39.3984375 61.4296875 C39.40230469 62.30753906 39.40617187 63.18539062 39.41015625 64.08984375 C39.39855469 65.00894531 39.38695313 65.92804688 39.375 66.875 C39.38660156 67.78636719 39.39820312 68.69773437 39.41015625 69.63671875 C39.40628906 70.51714844 39.40242188 71.39757812 39.3984375 72.3046875 C39.39505371 73.10890137 39.39166992 73.91311523 39.38818359 74.74169922 C38.90625956 77.54534532 37.93186563 78.93714078 36 81 C33.5625 81.5 33.5625 81.5 31 81 C28.6875 79.1875 28.6875 79.1875 27 77 C27 76.01 27 75.02 27 74 C25.35 74.33 23.7 74.66 22 75 C22 77.31 22 79.62 22 82 C19.03 82 16.06 82 13 82 C13.144375 83.464375 13.28875 84.92875 13.4375 86.4375 C13.51871094 87.26121094 13.59992188 88.08492188 13.68359375 88.93359375 C13.78930815 90.98662025 13.78930815 90.98662025 15 92 C15.46302251 99.17684887 15.46302251 99.17684887 13.875 102 C11.06836961 103.49686954 9.12242157 103.45535315 6 103 C3.42728552 100.77031412 3.04688091 99.37504726 2.625 96 C3.04688091 92.62495274 3.42728552 91.22968588 6 89 C9.1875 88.75 9.1875 88.75 12 89 C12 86.69 12 84.38 12 82 C3.585 82.495 3.585 82.495 -5 83 C-5.33 84.65 -5.66 86.3 -6 88 C-4.824375 88.37125 -4.824375 88.37125 -3.625 88.75 C-1 90 -1 90 0.375 91.6875 C1.27839983 95.03007937 0.74380117 97.65289473 0 101 C-3.73716002 104.73716002 -9.93331066 103.86352352 -15 104 C-24.28915663 103.71084337 -24.28915663 103.71084337 -27 101 C-27.22705078 99.02880859 -27.22705078 99.02880859 -27.1953125 96.6484375 C-27.18886719 95.79765625 -27.18242188 94.946875 -27.17578125 94.0703125 C-27.15902344 93.18085938 -27.14226563 92.29140625 -27.125 91.375 C-27.11597656 90.4778125 -27.10695312 89.580625 -27.09765625 88.65625 C-27.07405132 86.43738678 -27.03817962 84.2186603 -27 82 C-32.94 82 -38.88 82 -45 82 C-45 85.3 -45 88.6 -45 92 C-44.34 92 -43.68 92 -43 92 C-42.505 90.515 -42.505 90.515 -42 89 C-41.01 89 -40.02 89 -39 89 C-39 93.95 -39 98.9 -39 104 C-38.34 104 -37.68 104 -37 104 C-37 99.05 -37 94.1 -37 89 C-34.36 89 -31.72 89 -29 89 C-29 89.99 -29 90.98 -29 92 C-30.98 92 -32.96 92 -35 92 C-35 92.99 -35 93.98 -35 95 C-33.35 95 -31.7 95 -30 95 C-30 95.99 -30 96.98 -30 98 C-31.32 98 -32.64 98 -34 98 C-34 98.66 -34 99.32 -34 100 C-32.35 100.33 -30.7 100.66 -29 101 C-29.495 102.485 -29.495 102.485 -30 104 C-31.65 104 -33.3 104 -35 104 C-35.495 105.485 -35.495 105.485 -36 107 C-36.33 106.34 -36.66 105.68 -37 105 C-41.29 105 -45.58 105 -50 105 C-49.67 99.72 -49.34 94.44 -49 89 C-48.01 89 -47.02 89 -46 89 C-46 86.69 -46 84.38 -46 82 C-51.94 82 -57.88 82 -64 82 C-64 85.3 -64 88.6 -64 92 C-63.01 92 -62.02 92 -61 92 C-60.67 91.01 -60.34 90.02 -60 89 C-57.36 89 -54.72 89 -52 89 C-52 89.99 -52 90.98 -52 92 C-52.66 92 -53.32 92 -54 92 C-54 96.29 -54 100.58 -54 105 C-57.3 105 -60.6 105 -64 105 C-64 108.63 -64 112.26 -64 116 C-64.33 116 -64.66 116 -65 116 C-65 112.37 -65 108.74 -65 105 C-67.97 105 -70.94 105 -74 105 C-74 104.67 -74 104.34 -74 104 C-71.03 104 -68.06 104 -65 104 C-65 96.74 -65 89.48 -65 82 C-67.97 82 -70.94 82 -74 82 C-74 81.67 -74 81.34 -74 81 C-71.03 81 -68.06 81 -65 81 C-65 77.37 -65 73.74 -65 70 C-64.67 70 -64.34 70 -64 70 C-64 73.63 -64 77.26 -64 81 C-51.79 81 -39.58 81 -27 81 C-27 54.27 -27 27.54 -27 0 C-26.67 0 -26.34 0 -26 0 C-26 3.63 -26 7.26 -26 11 C-20.89905631 11.16454657 -18.26629441 11.0381818 -14.24609375 7.7421875 C-12.48600421 5.94366806 -10.75771296 4.11334886 -9.06640625 2.25 C-5.92800383 -1.16723969 -4.37406005 -1.45802002 0 0 Z " fill="#ECDFDA" transform="translate(83,38)"/>
<path d="M0 0 C0.33 0 0.66 0 1 0 C1 3.63 1 7.26 1 11 C13.54 11 26.08 11 39 11 C39 22.88 39 34.76 39 47 C29.76 47 20.52 47 11 47 C11 48.98 11 50.96 11 53 C12.32 53 13.64 53 15 53 C15 54.32 15 55.64 15 57 C13.35 57 11.7 57 10 57 C10 57.99 10 58.98 10 60 C11.65 60 13.3 60 15 60 C14.67 60.99 14.34 61.98 14 63 C13.01 63 12.02 63 11 63 C11 63.66 11 64.32 11 65 C12.65 65.33 14.3 65.66 16 66 C16 66.66 16 67.32 16 68 C13.03 68 10.06 68 7 68 C6.67 67.34 6.34 66.68 6 66 C5.54625 66.495 5.0925 66.99 4.625 67.5 C3 69 3 69 1 69 C1 84.84 1 100.68 1 117 C0.67 117 0.34 117 0 117 C0 109.41 0 101.82 0 94 C-3.3 94 -6.6 94 -10 94 C-10 86.08 -10 78.16 -10 70 C-12.68511719 70.08378906 -15.37023437 70.16757813 -18.13671875 70.25390625 C-20.74467267 70.33136792 -23.35267655 70.40686703 -25.96069336 70.48217773 C-27.76967425 70.53546404 -29.57859649 70.59078238 -31.38745117 70.64819336 C-33.9912451 70.73047869 -36.59516418 70.80539339 -39.19921875 70.87890625 C-40.00461594 70.90594131 -40.81001312 70.93297638 -41.63981628 70.96083069 C-42.4002272 70.98092697 -43.16063812 71.00102325 -43.9440918 71.02172852 C-44.60805466 71.04171402 -45.27201752 71.06169952 -45.95610046 71.08229065 C-48 71 -48 71 -53 70 C-53 64.72 -53 59.44 -53 54 C-50.525 53.505 -50.525 53.505 -48 53 C-48 48.71 -48 44.42 -48 40 C-55.26 40 -62.52 40 -70 40 C-70 39.67 -70 39.34 -70 39 C-65.56284145 38.85516958 -61.12628723 38.76608248 -56.6875 38.6875 C-55.42486328 38.64560547 -54.16222656 38.60371094 -52.86132812 38.56054688 C-51.65283203 38.54443359 -50.44433594 38.52832031 -49.19921875 38.51171875 C-48.08377686 38.48553467 -46.96833496 38.45935059 -45.8190918 38.43237305 C-43 39 -43 39 -41.17504883 41.46801758 C-40.78728271 42.30357178 -40.3995166 43.13912598 -40 44 C-38.94570314 45.26472065 -38.94570314 45.26472065 -36.5625 45.25 C-35.716875 45.1675 -34.87125 45.085 -34 45 C-31.77114289 41.65671434 -31.79972625 40.7436868 -31.9375 36.875 C-32.03869622 31.80844255 -31.65857851 27.02166112 -31 22 C-33.11138886 20.89129999 -34.75103991 20.03661178 -37.125 19.6875 C-39 19 -39 19 -40.25 16.4375 C-40.4975 15.633125 -40.745 14.82875 -41 14 C-39.75 12.4375 -39.75 12.4375 -38 11 C-35.8125 11.3125 -35.8125 11.3125 -34 12 C-34 9.36 -34 6.72 -34 4 C-33.34 4.33 -32.68 4.66 -32 5 C-32.33 6.98 -32.66 8.96 -33 11 C-22.11 11 -11.22 11 0 11 C0 7.37 0 3.74 0 0 Z " fill="#F2E5E0" transform="translate(153,73)"/>
<path d="M0 0 C2.5165535 1.21488789 4.04323397 2.72660553 5.8125 4.875 C5.8125 5.865 5.8125 6.855 5.8125 7.875 C6.4725 7.545 7.1325 7.215 7.8125 6.875 C13.84577855 4.86390715 19.00660263 5.55264105 24.8125 7.875 C24.895 7.2975 24.9775 6.72 25.0625 6.125 C26.0504616 3.16111521 27.35072058 1.77408698 29.8125 -0.125 C33.43514856 0.2146233 35.3775122 1.97392299 38 4.375 C38.69480469 5.0040625 39.38960937 5.633125 40.10546875 6.28125 C41.01892319 7.13408619 41.92883474 7.99133474 42.8125 8.875 C42.52519945 11.21444736 42.19313221 13.5489143 41.8125 15.875 C40.1625 16.205 38.5125 16.535 36.8125 16.875 C35.8531581 15.60492786 34.89506706 14.33391081 33.9375 13.0625 C33.40382812 12.35480469 32.87015625 11.64710937 32.3203125 10.91796875 C31.10435219 9.27043703 29.94833859 7.57875789 28.8125 5.875 C28.4825 6.535 28.1525 7.195 27.8125 7.875 C28.4725 7.875 29.1325 7.875 29.8125 7.875 C30.8025 10.515 31.7925 13.155 32.8125 15.875 C33.4725 15.875 34.1325 15.875 34.8125 15.875 C34.86857422 17.06996094 34.86857422 17.06996094 34.92578125 18.2890625 C35.24897993 24.90650252 35.24897993 24.90650252 37.4375 31.0625 C39.16373746 34.59344026 39.16647933 36.98364798 38.5859375 40.828125 C37.65163584 43.30072132 36.83814286 43.95815034 34.5625 45.25 C33.3192769 45.80704497 32.06946599 46.34970078 30.8125 46.875 C29.966875 47.41125 29.12125 47.9475 28.25 48.5 C23.31954 51.28128513 18.39239303 52.20541284 12.8125 52.875 C10.21231184 48.97471775 10.66164486 45.40065431 10.8125 40.875 C13.7825 40.875 16.7525 40.875 19.8125 40.875 C20.3075 43.35 20.3075 43.35 20.8125 45.875 C21.06644531 45.30910156 21.32039063 44.74320313 21.58203125 44.16015625 C21.92621094 43.42667969 22.27039063 42.69320312 22.625 41.9375 C22.96144531 41.20660156 23.29789063 40.47570312 23.64453125 39.72265625 C24.8125 37.875 24.8125 37.875 27.8125 36.875 C27.8125 36.215 27.8125 35.555 27.8125 34.875 C26.8225 34.875 25.8325 34.875 24.8125 34.875 C24.1525 36.195 23.4925 37.515 22.8125 38.875 C19.58837671 38.96455898 16.92561377 38.65327844 13.8125 37.875 C13.4825 38.205 13.1525 38.535 12.8125 38.875 C11.14632885 38.91563832 9.47861905 38.917721 7.8125 38.875 C7.1525 37.555 6.4925 36.235 5.8125 34.875 C4.8225 34.875 3.8325 34.875 2.8125 34.875 C2.8125 35.535 2.8125 36.195 2.8125 36.875 C3.7096875 37.1534375 3.7096875 37.1534375 4.625 37.4375 C7.91860133 39.60186659 8.57101019 42.21260506 9.8125 45.875 C10 48.8125 10 48.8125 9.8125 50.875 C4.82036149 50.40698701 0.68286007 47.95784263 -3.1875 44.875 C-3.1875 44.215 -3.1875 43.555 -3.1875 42.875 C-4.5075 42.875 -5.8275 42.875 -7.1875 42.875 C-7.166875 42.111875 -7.14625 41.34875 -7.125 40.5625 C-7.05807159 37.77314214 -7.05807159 37.77314214 -8.1875 34.875 C-7.41015625 32.45703125 -7.41015625 32.45703125 -6.25 29.6875 C-4.34114495 24.75465121 -3.7914672 21.12243462 -4.1875 15.875 C-3.5275 15.545 -2.8675 15.215 -2.1875 14.875 C-1.13397157 12.56534152 -0.13030904 10.2320226 0.8125 7.875 C1.8025 7.875 2.7925 7.875 3.8125 7.875 C3.1525 7.215 2.4925 6.555 1.8125 5.875 C1.36519531 6.58527344 0.91789062 7.29554687 0.45703125 8.02734375 C-0.14753906 8.94644531 -0.75210938 9.86554687 -1.375 10.8125 C-1.96667969 11.72902344 -2.55835937 12.64554688 -3.16796875 13.58984375 C-5.4946956 16.22260044 -6.74890181 16.59587372 -10.1875 16.875 C-12.36616811 13.60699783 -12.7987253 12.66686064 -12.1875 8.875 C-10.140625 6.3828125 -10.140625 6.3828125 -7.4375 4 C-6.55578125 3.19820312 -5.6740625 2.39640625 -4.765625 1.5703125 C-2.1875 -0.125 -2.1875 -0.125 0 0 Z " fill="#F6F7F7" transform="translate(80.1875,39.125)"/>
<path d="M0 0 C0.54011719 0.82886719 1.08023438 1.65773437 1.63671875 2.51171875 C3.89543741 5.38271784 3.89543741 5.38271784 7.93359375 5.69921875 C9.43473254 5.72170277 10.93648234 5.71698199 12.4375 5.6875 C13.56381836 5.72907227 13.56381836 5.72907227 14.71289062 5.77148438 C18.98911015 5.81242292 18.98911015 5.81242292 22.43798828 3.58056641 C22.84130371 3.0241748 23.24461914 2.4677832 23.66015625 1.89453125 C24.43230469 0.93933594 25.20445313 -0.01585937 26 -1 C29.95310804 -1.21817416 31.62064323 -0.27541618 34.80859375 2.0390625 C35.67613281 2.89242187 36.54367188 3.74578125 37.4375 4.625 C38.32308594 5.46289062 39.20867187 6.30078125 40.12109375 7.1640625 C42 10 42 10 41.8671875 13.71484375 C40.64823324 18.33259388 40.64823324 18.33259388 38 20 C36.68 20 35.36 20 34 20 C34.39456348 26.00008597 35.49246821 30.54884393 38 36 C38 36.99 38 37.98 38 39 C37.34 39 36.68 39 36 39 C36 41.64 36 44.28 36 47 C35.195625 47.12375 34.39125 47.2475 33.5625 47.375 C32.716875 47.58125 31.87125 47.7875 31 48 C29.75453595 50.49092811 30.2232422 51.41080733 31 54 C32.1446875 54.185625 32.1446875 54.185625 33.3125 54.375 C36 55 36 55 39 57 C39.38818359 58.99951172 39.38818359 58.99951172 39.3984375 61.4296875 C39.40423828 62.74646484 39.40423828 62.74646484 39.41015625 64.08984375 C39.39855469 65.00894531 39.38695312 65.92804688 39.375 66.875 C39.38660156 67.78636719 39.39820313 68.69773437 39.41015625 69.63671875 C39.40628906 70.51714844 39.40242188 71.39757812 39.3984375 72.3046875 C39.39505371 73.10890137 39.39166992 73.91311523 39.38818359 74.74169922 C38.90625956 77.54534532 37.93186563 78.93714078 36 81 C33.5625 81.5 33.5625 81.5 31 81 C28.6875 79.1875 28.6875 79.1875 27 77 C27 76.01 27 75.02 27 74 C18.09 74 9.18 74 0 74 C-0.33 75.32 -0.66 76.64 -1 78 C-2.68169493 80.35437291 -3.58393305 80.91465293 -6.4375 81.5 C-9 81 -9 81 -11.12890625 79.03515625 C-13.67044995 74.91244339 -13.59194843 71.68433779 -13.5 66.9375 C-13.51546875 66.13505859 -13.5309375 65.33261719 -13.546875 64.50585938 C-13.52135926 60.66255125 -13.47462468 58.64114217 -11.140625 55.48828125 C-8.73342864 53.8146648 -6.89532923 53.32170325 -4 53 C-4 53.99 -4 54.98 -4 56 C-3.34 56.33 -2.68 56.66 -2 57 C-2.33 59.31 -2.66 61.62 -3 64 C-2.34 64 -1.68 64 -1 64 C-0.67 62.68 -0.34 61.36 0 60 C0 61.65 0 63.3 0 65 C1.32 65 2.64 65 4 65 C4.33 63.68 4.66 62.36 5 61 C5.33 61.66 5.66 62.32 6 63 C6.33 61.35 6.66 59.7 7 58 C7.33 58.99 7.66 59.98 8 61 C11.3 61 14.6 61 18 61 C18.1546875 59.824375 18.1546875 59.824375 18.3125 58.625 C19 56 19 56 22 54 C25.1875 53.875 25.1875 53.875 28 54 C28 53.01 28 52.02 28 51 C27.14277344 51.37253906 26.28554687 51.74507812 25.40234375 52.12890625 C13.79476861 56.93158954 13.79476861 56.93158954 8 55 C7.34 54.34 6.68 53.68 6 53 C6.66 53 7.32 53 8 53 C7.24123547 50.8706608 6.4675766 48.74662427 5.6875 46.625 C5.25824219 45.44164062 4.82898438 44.25828125 4.38671875 43.0390625 C3.21378445 39.76212802 3.21378445 39.76212802 0 38 C0 37.34 0 36.68 0 36 C0.99 36 1.98 36 3 36 C3.66 36.99 4.32 37.98 5 39 C7.62807707 39.27663969 9.68957644 39.07760589 12.25 38.4375 C12.8275 38.293125 13.405 38.14875 14 38 C14.495 38.495 14.495 38.495 15 39 C17.45792029 39.33343551 17.45792029 39.33343551 20 39 C20.66 38.01 21.32 37.02 22 36 C22.99 36 23.98 36 25 36 C25 36.66 25 37.32 25 38 C24.01 38.66 23.02 39.32 22 40 C20.76609844 42.63632971 20.76609844 42.63632971 19.8125 45.625 C19.46832031 46.62789062 19.12414062 47.63078125 18.76953125 48.6640625 C18.38861328 49.82035156 18.38861328 49.82035156 18 51 C17.67 51 17.34 51 17 51 C17 48.03 17 45.06 17 42 C15.68 42 14.36 42 13 42 C13 43.98 13 45.96 13 48 C12.67 48 12.34 48 12 48 C12 46.02 12 44.04 12 42 C10.68 42 9.36 42 8 42 C8.99 47.445 8.99 47.445 10 53 C18.00141819 53 26.24872778 49.75127222 32 44 C32.99 44 33.98 44 35 44 C34.505 41.03 34.505 41.03 34 38 C34.66 38 35.32 38 36 38 C35.72285156 37.45472656 35.44570312 36.90945312 35.16015625 36.34765625 C32.17626802 30.13564694 29.73517392 23.79447823 32 17 C31.01 17.33 30.02 17.66 29 18 C28.34 15.03 27.68 12.06 27 9 C26.01 9.33 25.02 9.66 24 10 C24.66 8.68 25.32 7.36 26 6 C27.45049921 7.90855159 28.87573279 9.80655738 30.171875 11.82421875 C30.58953125 12.45972656 31.0071875 13.09523438 31.4375 13.75 C32.02337891 14.67039062 32.02337891 14.67039062 32.62109375 15.609375 C33.07613281 16.06828125 33.53117187 16.5271875 34 17 C35.32 17 36.64 17 38 17 C39.24906725 13.52962839 39.24906725 13.52962839 39 10 C36.43960258 6.74940849 33.57225401 4.09789795 30 2 C27.39747851 2.23154106 26.33311434 2.7285735 24.3125 4.375 C22.77892916 6.07973531 22.77892916 6.07973531 22 9 C21.175 8.835 20.35 8.67 19.5 8.5 C13.9005103 7.7000729 8.53399154 7.61650211 3 9 C2.319375 7.824375 2.319375 7.824375 1.625 6.625 C0.11571258 3.96301969 0.11571258 3.96301969 -2 2 C-5.51424002 2.32484572 -7.61724218 4.00728037 -10.25 6.25 C-10.95640625 6.83265625 -11.6628125 7.4153125 -12.390625 8.015625 C-14.21988802 9.90895121 -14.21988802 9.90895121 -14.296875 12.546875 C-14.0669137 15.13252558 -14.0669137 15.13252558 -13 18 C-8.4631359 16.65517146 -6.94912058 14.97747455 -4.6875 10.875 C-4.17574219 9.96492188 -3.66398437 9.05484375 -3.13671875 8.1171875 C-2.76160156 7.41851562 -2.38648437 6.71984375 -2 6 C-0.68 6.99 0.64 7.98 2 9 C1.67 9.66 1.34 10.32 1 11 C0.01 10.34 -0.98 9.68 -2 9 C-2.66 11.97 -3.32 14.94 -4 18 C-4.66 17.67 -5.32 17.34 -6 17 C-6.66 18.32 -7.32 19.64 -8 21 C-8 20.34 -8 19.68 -8 19 C-9.65 19.33 -11.3 19.66 -13 20 C-15.24182727 17.66476326 -16.00280528 15.98807757 -16.75 12.8125 C-15.58906051 6.91105759 -11.49275972 3.77910835 -7 0 C-4.20824656 -1.39587672 -2.93876905 -0.97958968 0 0 Z " fill="#3A6674" transform="translate(83,38)"/>
<path d="M0 0 C12.54 0 25.08 0 38 0 C38 7.26 38 14.52 38 22 C25.46 22 12.92 22 0 22 C0 14.74 0 7.48 0 0 Z " fill="#F7E9E3" transform="translate(154,85)"/>
<path d="M0 0 C0.83920486 0.02644089 1.67840973 0.05288177 2.54304504 0.0801239 C5.22343021 0.16789572 7.90246175 0.27704 10.58203125 0.38671875 C12.39904003 0.44997674 14.21609785 0.51184282 16.03320312 0.57226562 C20.48802281 0.72082745 24.94037211 0.8982572 29.39453125 1.07421875 C29.39453125 8.33421875 29.39453125 15.59421875 29.39453125 23.07421875 C18.83453125 23.07421875 8.27453125 23.07421875 -2.60546875 23.07421875 C-2.27546875 19.11421875 -1.94546875 15.15421875 -1.60546875 11.07421875 C-5.18822731 9.02257191 -5.18822731 9.02257191 -7.73046875 8.76171875 C-9.60546875 8.07421875 -9.60546875 8.07421875 -10.85546875 5.51171875 C-11.10296875 4.70734375 -11.35046875 3.90296875 -11.60546875 3.07421875 C-8.26915527 -0.8542408 -4.82860161 -0.22113617 0 0 Z " fill="#F5E7E1" transform="translate(123.60546875,83.92578125)"/>
<path d="M0 0 C1.32 0 2.64 0 4 0 C4.99 2.64 5.98 5.28 7 8 C7.66 8 8.32 8 9 8 C9.03738281 8.79664063 9.07476562 9.59328125 9.11328125 10.4140625 C9.43647993 17.03150252 9.43647993 17.03150252 11.625 23.1875 C13.35123746 26.71844026 13.35397933 29.10864798 12.7734375 32.953125 C11.83913584 35.42572132 11.02564286 36.08315034 8.75 37.375 C7.5067769 37.93204497 6.25696599 38.47470078 5 39 C4.154375 39.53625 3.30875 40.0725 2.4375 40.625 C-2.49296 43.40628513 -7.42010697 44.33041284 -13 45 C-15.60018816 41.09971775 -15.15085514 37.52565431 -15 33 C-12.03 33 -9.06 33 -6 33 C-5.67 34.65 -5.34 36.3 -5 38 C-4.74605469 37.43410156 -4.49210937 36.86820313 -4.23046875 36.28515625 C-3.71419922 35.18494141 -3.71419922 35.18494141 -3.1875 34.0625 C-2.85105469 33.33160156 -2.51460937 32.60070312 -2.16796875 31.84765625 C-1 30 -1 30 2 29 C2 28.34 2 27.68 2 27 C1.01 27 0.02 27 -1 27 C-1.66 28.32 -2.32 29.64 -3 31 C-6.71599191 31.20086443 -7.77208445 31.1519437 -11 29 C-11 28.34 -11 27.68 -11 27 C-12.32 26.34 -13.64 25.68 -15 25 C-15 23.35 -15 21.7 -15 20 C-15.66 19.67 -16.32 19.34 -17 19 C-13.91111478 16.94074319 -13.29064073 16.7609626 -9.8125 16.875 C-8.554375 16.91625 -7.29625 16.9575 -6 17 C-6.33 16.34 -6.66 15.68 -7 15 C-7.45014808 9.71076012 -7.45014808 9.71076012 -5.8125 7.125 C-3.34492892 5.59340416 -1.85480169 5.57177975 1 6 C2.8125 7.5 2.8125 7.5 4 9 C2.80100302 5.9168649 1.52299523 2.93720508 0 0 Z " fill="#F4F5F5" transform="translate(106,47)"/>
<path d="M0 0 C0.8125 2 0.8125 2 1 4 C-0.39375072 6.78750144 -2.16244861 6.89266287 -5 8 C-7.66788579 10.66788579 -7.26148845 12.70055344 -7.2734375 16.33007812 C-7.26570313 17.14927734 -7.25796875 17.96847656 -7.25 18.8125 C-7.25773437 19.62009766 -7.26546875 20.42769531 -7.2734375 21.25976562 C-7.27085938 22.04673828 -7.26828125 22.83371094 -7.265625 23.64453125 C-7.26336914 24.35971924 -7.26111328 25.07490723 -7.25878906 25.81176758 C-7.03098154 28.5503357 -7.03098154 28.5503357 -5 33 C-10.28 33 -15.56 33 -21 33 C-21 21.78 -21 10.56 -21 -1 C-18.2775 -1.20625 -15.555 -1.4125 -12.75 -1.625 C-11.89889648 -1.69541504 -11.04779297 -1.76583008 -10.17089844 -1.83837891 C-3.03386922 -2.31677286 -3.03386922 -2.31677286 0 0 Z " fill="#F3E5DF" transform="translate(78,86)"/>
<path d="M0 0 C0.33 0 0.66 0 1 0 C1 3.63 1 7.26 1 11 C13.21 11 25.42 11 38 11 C38 11.33 38 11.66 38 12 C32.06 12 26.12 12 20 12 C20 15.3 20 18.6 20 22 C20.66 22 21.32 22 22 22 C22.33 21.01 22.66 20.02 23 19 C23.99 19 24.98 19 26 19 C26 23.95 26 28.9 26 34 C26.66 34 27.32 34 28 34 C28 29.05 28 24.1 28 19 C30.64 19 33.28 19 36 19 C36 19.99 36 20.98 36 22 C34.02 22 32.04 22 30 22 C30 22.99 30 23.98 30 25 C31.65 25 33.3 25 35 25 C35 25.99 35 26.98 35 28 C33.68 28 32.36 28 31 28 C31 28.66 31 29.32 31 30 C32.65 30.33 34.3 30.66 36 31 C35.67 31.99 35.34 32.98 35 34 C33.35 34 31.7 34 30 34 C29.67 34.99 29.34 35.98 29 37 C28.67 36.34 28.34 35.68 28 35 C23.71 35 19.42 35 15 35 C15.33 29.72 15.66 24.44 16 19 C16.99 19 17.98 19 19 19 C19 16.69 19 14.38 19 12 C13.06 12 7.12 12 1 12 C1 15.3 1 18.6 1 22 C1.99 22 2.98 22 4 22 C4.33 21.01 4.66 20.02 5 19 C7.64 19 10.28 19 13 19 C13 19.99 13 20.98 13 22 C12.34 22 11.68 22 11 22 C11 26.29 11 30.58 11 35 C7.7 35 4.4 35 1 35 C1 38.63 1 42.26 1 46 C0.67 46 0.34 46 0 46 C0 42.37 0 38.74 0 35 C-2.97 35 -5.94 35 -9 35 C-9 34.67 -9 34.34 -9 34 C-6.03 34 -3.06 34 0 34 C0 26.74 0 19.48 0 12 C-2.97 12 -5.94 12 -9 12 C-9 11.67 -9 11.34 -9 11 C-6.03 11 -3.06 11 0 11 C0 7.37 0 3.74 0 0 Z " fill="#E3D9D4" transform="translate(18,108)"/>
<path d="M0 0 C0.54011719 0.82886719 1.08023438 1.65773437 1.63671875 2.51171875 C3.89543741 5.38271784 3.89543741 5.38271784 7.93359375 5.69921875 C9.43473254 5.72170277 10.93648234 5.71698199 12.4375 5.6875 C13.56381836 5.72907227 13.56381836 5.72907227 14.71289062 5.77148438 C18.98911015 5.81242292 18.98911015 5.81242292 22.43798828 3.58056641 C22.84130371 3.0241748 23.24461914 2.4677832 23.66015625 1.89453125 C24.43230469 0.93933594 25.20445313 -0.01585937 26 -1 C29.95310804 -1.21817416 31.62064323 -0.27541618 34.80859375 2.0390625 C35.67613281 2.89242187 36.54367188 3.74578125 37.4375 4.625 C38.32308594 5.46289062 39.20867187 6.30078125 40.12109375 7.1640625 C42 10 42 10 41.8671875 13.71484375 C40.64823324 18.33259388 40.64823324 18.33259388 38 20 C36.68 20 35.36 20 34 20 C34.39456348 26.00008597 35.49246821 30.54884393 38 36 C38 36.99 38 37.98 38 39 C37.34 39 36.68 39 36 39 C36 41.64 36 44.28 36 47 C35.195625 47.12375 34.39125 47.2475 33.5625 47.375 C32.716875 47.58125 31.87125 47.7875 31 48 C29.75453595 50.49092811 30.2232422 51.41080733 31 54 C32.32 54.33 33.64 54.66 35 55 C32.525 55.495 32.525 55.495 30 56 C29.34 54.35 28.68 52.7 28 51 C27.14277344 51.37253906 26.28554687 51.74507812 25.40234375 52.12890625 C13.79476861 56.93158954 13.79476861 56.93158954 8 55 C7.34 54.34 6.68 53.68 6 53 C6.66 53 7.32 53 8 53 C7.24123547 50.8706608 6.4675766 48.74662427 5.6875 46.625 C5.25824219 45.44164062 4.82898438 44.25828125 4.38671875 43.0390625 C3.21378445 39.76212802 3.21378445 39.76212802 0 38 C0 37.34 0 36.68 0 36 C0.99 36 1.98 36 3 36 C3.66 36.99 4.32 37.98 5 39 C7.62807707 39.27663969 9.68957644 39.07760589 12.25 38.4375 C12.8275 38.293125 13.405 38.14875 14 38 C14.495 38.495 14.495 38.495 15 39 C17.45792029 39.33343551 17.45792029 39.33343551 20 39 C20.66 38.01 21.32 37.02 22 36 C22.99 36 23.98 36 25 36 C25 36.66 25 37.32 25 38 C24.01 38.66 23.02 39.32 22 40 C20.76609844 42.63632971 20.76609844 42.63632971 19.8125 45.625 C19.46832031 46.62789062 19.12414062 47.63078125 18.76953125 48.6640625 C18.38861328 49.82035156 18.38861328 49.82035156 18 51 C17.67 51 17.34 51 17 51 C17 48.03 17 45.06 17 42 C15.68 42 14.36 42 13 42 C13 43.98 13 45.96 13 48 C12.67 48 12.34 48 12 48 C12 46.02 12 44.04 12 42 C10.68 42 9.36 42 8 42 C8.99 47.445 8.99 47.445 10 53 C18.00141819 53 26.24872778 49.75127222 32 44 C32.99 44 33.98 44 35 44 C34.505 41.03 34.505 41.03 34 38 C34.66 38 35.32 38 36 38 C35.72285156 37.45472656 35.44570312 36.90945312 35.16015625 36.34765625 C32.17626802 30.13564694 29.73517392 23.79447823 32 17 C31.01 17.33 30.02 17.66 29 18 C28.34 15.03 27.68 12.06 27 9 C26.01 9.33 25.02 9.66 24 10 C24.66 8.68 25.32 7.36 26 6 C27.45049921 7.90855159 28.87573279 9.80655738 30.171875 11.82421875 C30.58953125 12.45972656 31.0071875 13.09523438 31.4375 13.75 C32.02337891 14.67039062 32.02337891 14.67039062 32.62109375 15.609375 C33.07613281 16.06828125 33.53117187 16.5271875 34 17 C35.32 17 36.64 17 38 17 C39.24906725 13.52962839 39.24906725 13.52962839 39 10 C36.43960258 6.74940849 33.57225401 4.09789795 30 2 C27.39747851 2.23154106 26.33311434 2.7285735 24.3125 4.375 C22.77892916 6.07973531 22.77892916 6.07973531 22 9 C21.175 8.835 20.35 8.67 19.5 8.5 C13.9005103 7.7000729 8.53399154 7.61650211 3 9 C2.319375 7.824375 2.319375 7.824375 1.625 6.625 C0.11571258 3.96301969 0.11571258 3.96301969 -2 2 C-5.51424002 2.32484572 -7.61724218 4.00728037 -10.25 6.25 C-10.95640625 6.83265625 -11.6628125 7.4153125 -12.390625 8.015625 C-14.21988802 9.90895121 -14.21988802 9.90895121 -14.296875 12.546875 C-14.0669137 15.13252558 -14.0669137 15.13252558 -13 18 C-8.4631359 16.65517146 -6.94912058 14.97747455 -4.6875 10.875 C-4.17574219 9.96492188 -3.66398437 9.05484375 -3.13671875 8.1171875 C-2.76160156 7.41851562 -2.38648437 6.71984375 -2 6 C-0.68 6.99 0.64 7.98 2 9 C1.67 9.66 1.34 10.32 1 11 C0.01 10.34 -0.98 9.68 -2 9 C-2.66 11.97 -3.32 14.94 -4 18 C-4.66 17.67 -5.32 17.34 -6 17 C-6.66 18.32 -7.32 19.64 -8 21 C-8 20.34 -8 19.68 -8 19 C-9.65 19.33 -11.3 19.66 -13 20 C-15.24182727 17.66476326 -16.00280528 15.98807757 -16.75 12.8125 C-15.58906051 6.91105759 -11.49275972 3.77910835 -7 0 C-4.20824656 -1.39587672 -2.93876905 -0.97958968 0 0 Z " fill="#617171" transform="translate(83,38)"/>
<path d="M0 0 C3.3 0 6.6 0 10 0 C10 1.98 10 3.96 10 6 C11.32 6 12.64 6 14 6 C14 7.32 14 8.64 14 10 C12.35 10 10.7 10 9 10 C9 10.99 9 11.98 9 13 C10.65 13 12.3 13 14 13 C13.67 13.99 13.34 14.98 13 16 C12.01 16 11.02 16 10 16 C10 16.66 10 17.32 10 18 C11.65 18.33 13.3 18.66 15 19 C15 19.66 15 20.32 15 21 C12.03 21 9.06 21 6 21 C5.67 20.34 5.34 19.68 5 19 C4.54625 19.495 4.0925 19.99 3.625 20.5 C2 22 2 22 0 22 C0 37.84 0 53.68 0 70 C-0.33 70 -0.66 70 -1 70 C-1 62.41 -1 54.82 -1 47 C-4.3 47 -7.6 47 -11 47 C-11 38.75 -11 30.5 -11 22 C-12.32 21.67 -13.64 21.34 -15 21 C-17.28062828 17.57905758 -17.21925007 16.31812778 -17.125 12.3125 C-17.10695312 11.31863281 -17.08890625 10.32476562 -17.0703125 9.30078125 C-17.04710937 8.54152344 -17.02390625 7.78226562 -17 7 C-16.01 7 -15.02 7 -14 7 C-14 10.63 -14 14.26 -14 18 C-12.68 17.67 -11.36 17.34 -10 17 C-9.67 13.7 -9.34 10.4 -9 7 C-8.34 7 -7.68 7 -7 7 C-6.94589313 8.77049689 -6.90715881 10.54146849 -6.875 12.3125 C-6.85179687 13.29863281 -6.82859375 14.28476563 -6.8046875 15.30078125 C-7 18 -7 18 -9 21 C-9.36798693 23.71075544 -9.36798693 23.71075544 -9.4140625 26.76171875 C-9.45273438 27.87998047 -9.49140625 28.99824219 -9.53125 30.15039062 C-9.5621875 31.31763672 -9.593125 32.48488281 -9.625 33.6875 C-9.66367188 34.86634766 -9.70234375 36.04519531 -9.7421875 37.25976562 C-9.83654391 40.17301977 -9.92213161 43.08626607 -10 46 C-7.03 46 -4.06 46 -1 46 C-1.0807386 42.06165122 -1.19359377 38.12486673 -1.3125 34.1875 C-1.33505859 33.06794922 -1.35761719 31.94839844 -1.38085938 30.79492188 C-1.41630859 29.72177734 -1.45175781 28.64863281 -1.48828125 27.54296875 C-1.51446533 26.55321045 -1.54064941 25.56345215 -1.56762695 24.54370117 C-2.0629667 21.62955953 -2.82809024 20.89161674 -5 19 C-5 18.34 -5 17.68 -5 17 C-3.02 17.33 -1.04 17.66 1 18 C1.33 17.34 1.66 16.68 2 16 C1.195625 15.855625 0.39125 15.71125 -0.4375 15.5625 C-3 15 -3 15 -4 14 C-3.71269945 11.66055264 -3.38063221 9.3260857 -3 7 C-2.01 6.67 -1.02 6.34 0 6 C0 4.02 0 2.04 0 0 Z " fill="#E4D9D4" transform="translate(154,120)"/>
<path d="M0 0 C3.63 0 7.26 0 11 0 C10.67 1.98 10.34 3.96 10 6 C10.78375 6.2475 11.5675 6.495 12.375 6.75 C15 8 15 8 16.375 9.6875 C17.27839983 13.03007937 16.74380117 15.65289473 16 19 C12.26283998 22.73716002 6.06668934 21.86352352 1 22 C-8.28915663 21.71084337 -8.28915663 21.71084337 -11 19 C-11.1953125 16.1796875 -11.1953125 16.1796875 -11.125 12.875 C-11.10695312 11.77929688 -11.08890625 10.68359375 -11.0703125 9.5546875 C-11.04710937 8.71164063 -11.02390625 7.86859375 -11 7 C-10.01 7 -9.02 7 -8 7 C-8 10.63 -8 14.26 -8 18 C-7.34 18 -6.68 18 -6 18 C-6 14.37 -6 10.74 -6 7 C-5.01 7 -4.02 7 -3 7 C-3 10.63 -3 14.26 -3 18 C-2.01 18 -1.02 18 0 18 C0 12.06 0 6.12 0 0 Z " fill="#F6E8E3" transform="translate(67,120)"/>
<path d="M0 0 C5.73008485 0.00436384 11.46014789 0.00121729 17.19023138 -0.00362909 C22.83132688 -0.00820195 28.47241308 -0.00879266 34.11350983 -0.00619042 C37.43394498 -0.00465949 40.7543539 -0.00475921 44.07478988 -0.00772691 C58.48342145 -0.01781452 72.81869177 0.15788002 87.19754112 1.12856841 C87.19754112 1.78856841 87.19754112 2.44856841 87.19754112 3.12856841 C23.83754112 3.12856841 -39.52245888 3.12856841 -104.80245888 3.12856841 C-104.80245888 2.46856841 -104.80245888 1.80856841 -104.80245888 1.12856841 C-69.86810111 0.14444548 -34.94514176 -0.02977514 0 0 Z " fill="#E0E0E0" transform="translate(104.80245888233185,188.8714315891266)"/>
<path d="M0 0 C2.64 0 5.28 0 8 0 C8 0.99 8 1.98 8 3 C6.35 3 4.7 3 3 3 C3 3.99 3 4.98 3 6 C4.65 6.33 6.3 6.66 8 7 C7.34 9.64 6.68 12.28 6 15 C7.65 15 9.3 15 11 15 C11 10.05 11 5.1 11 0 C11.66 0 12.32 0 13 0 C13 1.65 13 3.3 13 5 C14.65 5 16.3 5 18 5 C18 3.35 18 1.7 18 0 C18.66 0 19.32 0 20 0 C20 4.95 20 9.9 20 15 C21.32 15 22.64 15 24 15 C23.67 14.34 23.34 13.68 23 13 C22.85359499 11.35857459 22.77903411 9.7101859 22.75 8.0625 C22.72421875 7.18722656 22.6984375 6.31195313 22.671875 5.41015625 C23 3 23 3 24.29296875 1.1796875 C26 0 26 0 29.5625 0.0625 C33 1 33 1 34.5 2.625 C35.37425912 6.77773083 34.8446093 10.45120247 32.81201172 14.1784668 C30.31141871 16.69219954 28.70061117 16.55262899 25.1953125 16.64453125 C24.05449219 16.68126953 22.91367188 16.71800781 21.73828125 16.75585938 C19.94970703 16.78389648 19.94970703 16.78389648 18.125 16.8125 C16.94035156 16.85052734 15.75570312 16.88855469 14.53515625 16.92773438 C9.40401794 17.06367772 5.06867387 17.01373477 0 16 C0 10.72 0 5.44 0 0 Z " fill="#E1DAD6" transform="translate(100,127)"/>
<path d="M0 0 C2.64 0 5.28 0 8 0 C8 15.51 8 31.02 8 47 C5.36 47 2.72 47 0 47 C0 31.49 0 15.98 0 0 Z " fill="#F8EAE4" transform="translate(0,2)"/>
<path d="M0 0 C4.43715855 -0.14483042 8.87371277 -0.23391752 13.3125 -0.3125 C14.57513672 -0.35439453 15.83777344 -0.39628906 17.13867188 -0.43945312 C18.34716797 -0.45556641 19.55566406 -0.47167969 20.80078125 -0.48828125 C21.91622314 -0.51446533 23.03166504 -0.54064941 24.1809082 -0.56762695 C27 0 27 0 28.82495117 2.46801758 C29.21271729 3.30357178 29.6004834 4.13912598 30 5 C31.81115956 6.81115956 34.61278227 6.38199448 37.0625 6.5625 C38.71958984 6.68818359 38.71958984 6.68818359 40.41015625 6.81640625 C41.26480469 6.87699219 42.11945313 6.93757813 43 7 C42.34 7.33 41.68 7.66 41 8 C41 15.26 41 22.52 41 30 C39.68 30 38.36 30 37 30 C37 25.05 37 20.1 37 15 C36.34 15 35.68 15 35 15 C35 16.65 35 18.3 35 20 C33.35 20 31.7 20 30 20 C30 18.35 30 16.7 30 15 C29.34 15 28.68 15 28 15 C28 19.95 28 24.9 28 30 C26.35 30 24.7 30 23 30 C22.91773332 26.95613276 23.02391783 24.92824652 24 22 C22.68 21.67 21.36 21.34 20 21 C20 20.01 20 19.02 20 18 C21.65 18 23.3 18 25 18 C25 17.01 25 16.02 25 15 C22.69 15 20.38 15 18 15 C19.32 14.67 20.64 14.34 22 14 C22 9.71 22 5.42 22 1 C14.74 1 7.48 1 0 1 C0 0.67 0 0.34 0 0 Z " fill="#E9E0DB" transform="translate(83,112)"/>
<path d="M0 0 C9.24 0 18.48 0 28 0 C28 3.63 28 7.26 28 11 C18.76 11 9.52 11 0 11 C0 7.37 0 3.74 0 0 Z " fill="#F8EAE4" transform="translate(154,108)"/>
<path d="M0 0 C0.33 0 0.66 0 1 0 C0.42934122 6.41991126 -1.67344909 12.01589463 -4 18 C-3.34 18.33 -2.68 18.66 -2 19 C-2.33 20.65 -2.66 22.3 -3 24 C-1.68 24 -0.36 24 1 24 C1 24.66 1 25.32 1 26 C1.53625 26.268125 2.0725 26.53625 2.625 26.8125 C4.43364053 27.71682026 6.22196474 28.66189757 8 29.625 C11.05602743 31.27776981 11.05602743 31.27776981 15 31 C15 31.99 15 32.98 15 34 C22.36725718 36.22731031 28.21127828 32.95028658 35 30 C35.66 30.99 36.32 31.98 37 33 C36.67 33.99 36.34 34.98 36 36 C35.67 35.67 35.34 35.34 35 35 C30.83009336 34.57218327 30.83009336 34.57218327 27.1875 36.3125 C25.80544154 38.10476225 25.80544154 38.10476225 25 41 C24.32453125 40.95359375 23.6490625 40.9071875 22.953125 40.859375 C20.25154288 40.75006243 17.68940113 40.70591335 15 41 C13.62804426 42.29355827 12.28817344 43.62298702 11 45 C7.25 44.75 7.25 44.75 4 44 C4.04125 42.948125 4.0825 41.89625 4.125 40.8125 C4.00629856 37.19210606 3.48204243 35.22562175 2 32 C1.64141484 30.67323492 1.2981424 29.34164079 1 28 C0.360625 27.87625 -0.27875 27.7525 -0.9375 27.625 C-1.9584375 27.315625 -1.9584375 27.315625 -3 27 C-4.35439668 24.29120665 -4.06501451 21.99066732 -4 19 C-4.66 19 -5.32 19 -6 19 C-5.58521262 16.51127572 -5.19273758 14.37231638 -4.02734375 12.12109375 C-2.92480152 9.84474231 -2.42465332 7.78920384 -1.9375 5.3125 C-1.10408163 1.10408163 -1.10408163 1.10408163 0 0 Z " fill="#596D6E" transform="translate(76,58)"/>
<path d="M0 0 C2.4562766 2.12434733 3.78309422 3.76122699 4.3515625 7.0078125 C4.47204443 9.97604902 4.30837266 12.40139425 2.9375 15.0625 C-0.1415866 16.55238061 -2.74856958 15.67482518 -6 15 C-6.12375 15.61875 -6.2475 16.2375 -6.375 16.875 C-7 19 -7 19 -9 21 C-11.5 21.25 -11.5 21.25 -14 21 C-16 19 -16 19 -16.125 16.375 C-16.08375 15.59125 -16.0425 14.8075 -16 14 C-16.66 13.67 -17.32 13.34 -18 13 C-14.91111478 10.94074319 -14.29064073 10.7609626 -10.8125 10.875 C-8.9253125 10.936875 -8.9253125 10.936875 -7 11 C-7.33 10.34 -7.66 9.68 -8 9 C-8.45014808 3.71076012 -8.45014808 3.71076012 -6.8125 1.125 C-4.27353509 -0.45090926 -2.93597381 -0.57287294 0 0 Z " fill="#BDBFBF" transform="translate(107,53)"/>
<path d="M0 0 C6.6 0 13.2 0 20 0 C20 3.63 20 7.26 20 11 C12.41 11 4.82 11 -3 11 C-3 10.34 -3 9.68 -3 9 C-2.505 8.5875 -2.01 8.175 -1.5 7.75 C0.65079137 5.62489108 0.65079137 5.62489108 0 0 Z " fill="#F8EAE4" transform="translate(123,108)"/>
<path d="M0 0 C3.3 0 6.6 0 10 0 C10 1.98 10 3.96 10 6 C11.32 6 12.64 6 14 6 C14 7.32 14 8.64 14 10 C12.35 10 10.7 10 9 10 C9 10.99 9 11.98 9 13 C10.65 13 12.3 13 14 13 C13.67 13.99 13.34 14.98 13 16 C12.01 16 11.02 16 10 16 C10 16.66 10 17.32 10 18 C11.65 18.33 13.3 18.66 15 19 C15 19.66 15 20.32 15 21 C13.54207116 21.05399736 12.08357288 21.09279177 10.625 21.125 C9.40683594 21.15980469 9.40683594 21.15980469 8.1640625 21.1953125 C6 21 6 21 4 19 C3.71125 18.175 3.4225 17.35 3.125 16.5 C2.21791378 13.8604924 2.21791378 13.8604924 -0.125 12.6875 C-0.74375 12.460625 -1.3625 12.23375 -2 12 C-2 11.34 -2 10.68 -2 10 C0.475 10.495 0.475 10.495 3 11 C2.2575 9.948125 2.2575 9.948125 1.5 8.875 C-0.1936681 5.62880281 -0.25162315 3.60659844 0 0 Z " fill="#F4E7E2" transform="translate(154,120)"/>
<path d="M0 0 C2.97 0 5.94 0 9 0 C9 7.26 9 14.52 9 22 C6.03 22 3.06 22 0 22 C0 14.74 0 7.48 0 0 Z " fill="#F8EAE4" transform="translate(57,50)"/>
<path d="M0 0 C0.54011719 0.82886719 1.08023438 1.65773437 1.63671875 2.51171875 C3.89543741 5.38271784 3.89543741 5.38271784 7.93359375 5.69921875 C9.43473254 5.72170277 10.93648234 5.71698199 12.4375 5.6875 C13.56381836 5.72907227 13.56381836 5.72907227 14.71289062 5.77148438 C17.92928343 5.75734017 20.12482735 5.73470964 22.64892578 3.61572266 C24.21521761 1.8030756 24.21521761 1.8030756 26 -1 C27.32 -0.67 28.64 -0.34 30 0 C29.50628906 0.39832031 29.01257813 0.79664063 28.50390625 1.20703125 C27.54291016 2.00173828 27.54291016 2.00173828 26.5625 2.8125 C25.60537109 3.59560547 25.60537109 3.59560547 24.62890625 4.39453125 C22.7451725 6.00834411 22.7451725 6.00834411 22 9 C21.175 8.835 20.35 8.67 19.5 8.5 C13.9005103 7.7000729 8.53399154 7.61650211 3 9 C2.319375 7.824375 2.319375 7.824375 1.625 6.625 C0.11571258 3.96301969 0.11571258 3.96301969 -2 2 C-5.51424002 2.32484572 -7.61724218 4.00728037 -10.25 6.25 C-10.95640625 6.83265625 -11.6628125 7.4153125 -12.390625 8.015625 C-14.21988802 9.90895121 -14.21988802 9.90895121 -14.296875 12.546875 C-14.0669137 15.13252558 -14.0669137 15.13252558 -13 18 C-8.4631359 16.65517146 -6.94912058 14.97747455 -4.6875 10.875 C-4.17574219 9.96492188 -3.66398437 9.05484375 -3.13671875 8.1171875 C-2.76160156 7.41851562 -2.38648437 6.71984375 -2 6 C-0.68 6.99 0.64 7.98 2 9 C1.67 9.66 1.34 10.32 1 11 C0.01 10.34 -0.98 9.68 -2 9 C-2.66 11.97 -3.32 14.94 -4 18 C-4.66 17.67 -5.32 17.34 -6 17 C-6.66 18.32 -7.32 19.64 -8 21 C-8 20.34 -8 19.68 -8 19 C-9.65 19.33 -11.3 19.66 -13 20 C-15.24182727 17.66476326 -16.00280528 15.98807757 -16.75 12.8125 C-15.58906051 6.91105759 -11.49275972 3.77910835 -7 0 C-4.20824656 -1.39587672 -2.93876905 -0.97958968 0 0 Z " fill="#617272" transform="translate(83,38)"/>
<path d="M0 0 C0.33 0 0.66 0 1 0 C1 3.63 1 7.26 1 11 C13.54 11 26.08 11 39 11 C39 11.33 39 11.66 39 12 C26.46 12 13.92 12 1 12 C1 19.59 1 27.18 1 35 C-9.23 35 -19.46 35 -30 35 C-29.67 37.31 -29.34 39.62 -29 42 C-29.99 42.66 -30.98 43.32 -32 44 C-31.67 40.7 -31.34 37.4 -31 34 C-20.77 34 -10.54 34 0 34 C0 26.74 0 19.48 0 12 C-11.22 12 -22.44 12 -34 12 C-34 9.36 -34 6.72 -34 4 C-33.01 4.495 -33.01 4.495 -32 5 C-32.33 6.98 -32.66 8.96 -33 11 C-22.11 11 -11.22 11 0 11 C0 7.37 0 3.74 0 0 Z " fill="#E4D8D3" transform="translate(153,73)"/>
<path d="M0 0 C6.75 0.75 6.75 0.75 9 3 C9.55641422 10.01081917 9.55641422 10.01081917 7.875 13 C5.06836961 14.49686954 3.12242157 14.45535315 0 14 C-2.57271448 11.77031412 -2.95311909 10.37504726 -3.375 7 C-2.96644557 3.73156457 -2.20409407 2.38776858 0 0 Z " fill="#4E7A89" transform="translate(89,127)"/>
<path d="M0 0 C0.99 0 1.98 0 3 0 C3.66 0.99 4.32 1.98 5 3 C7.62807707 3.27663969 9.68957644 3.07760589 12.25 2.4375 C12.8275 2.293125 13.405 2.14875 14 2 C14.33 2.33 14.66 2.66 15 3 C17.45792029 3.33343551 17.45792029 3.33343551 20 3 C20.66 2.01 21.32 1.02 22 0 C22.99 0 23.98 0 25 0 C25 0.66 25 1.32 25 2 C24.01 2.66 23.02 3.32 22 4 C20.76609844 6.63632971 20.76609844 6.63632971 19.8125 9.625 C19.46832031 10.62789062 19.12414062 11.63078125 18.76953125 12.6640625 C18.38861328 13.82035156 18.38861328 13.82035156 18 15 C17.67 15 17.34 15 17 15 C17 12.03 17 9.06 17 6 C15.68 6 14.36 6 13 6 C13 7.98 13 9.96 13 12 C12.67 12 12.34 12 12 12 C12 10.02 12 8.04 12 6 C10.68 6 9.36 6 8 6 C8.66 9.63 9.32 13.26 10 17 C14.75296543 17.27314392 14.75296543 17.27314392 18.0625 15.9375 C21.13601056 14.95659237 22.04637358 15.09168048 25 16 C14.5351119 20.9060743 14.5351119 20.9060743 8 19 C7.34 18.34 6.68 17.68 6 17 C6.66 17 7.32 17 8 17 C7.24123547 14.8706608 6.4675766 12.74662427 5.6875 10.625 C5.25824219 9.44164063 4.82898438 8.25828125 4.38671875 7.0390625 C3.21378445 3.76212802 3.21378445 3.76212802 0 2 C0 1.34 0 0.68 0 0 Z " fill="#4E6262" transform="translate(83,74)"/>
<path d="M0 0 C1.5 1.625 1.5 1.625 2 4 C1.55555556 10.44444444 1.55555556 10.44444444 -1 13 C-4.03989923 13.32339354 -6.14368353 13.45670212 -8.875 12 C-10.68755546 8.77767918 -10.53166222 5.60182435 -10 2 C-7.76801716 -2.33267256 -4.17146779 -1.13767303 0 0 Z " fill="#527D8B" transform="translate(133,128)"/>
<path d="M0 0 C6.52293578 0.48318043 6.52293578 0.48318043 8.5 2.625 C9.20699321 5.98321773 8.7397664 8.67105121 8 12 C6 14 6 14 3.0625 14.3125 C0 14 0 14 -1.875 12.9375 C-3.64796631 9.88405803 -3.36343372 7.45262038 -3 4 C-1.5 1.5625 -1.5 1.5625 0 0 Z " fill="#517C8B" transform="translate(75,127)"/>
<path d="M0 0 C2.97 0 5.94 0 9 0 C9 3.3 9 6.6 9 10 C8.67 9.01 8.34 8.02 8 7 C7.01 7 6.02 7 5 7 C5 11.95 5 16.9 5 22 C3.35 22 1.7 22 0 22 C-0.08226668 18.95613276 0.02391783 16.92824652 1 14 C-0.32 13.67 -1.64 13.34 -3 13 C-3 12.01 -3 11.02 -3 10 C-1.35 10 0.3 10 2 10 C2 8.68 2 7.36 2 6 C1.34 6 0.68 6 0 6 C0 4.02 0 2.04 0 0 Z " fill="#EBE1DD" transform="translate(106,120)"/>
<path d="M0 0 C0.99 0 1.98 0 3 0 C3 3.63 3 7.26 3 11 C3.66 11 4.32 11 5 11 C5 7.37 5 3.74 5 0 C5.99 0 6.98 0 8 0 C8 3.63 8 7.26 8 11 C8.99 11 9.98 11 11 11 C11 7.37 11 3.74 11 0 C11.66 0 12.32 0 13 0 C13.02685938 2.14576637 13.04633088 4.29162645 13.0625 6.4375 C13.07410156 7.63246094 13.08570312 8.82742187 13.09765625 10.05859375 C13 13 13 13 12 14 C10.35769636 14.1245486 8.70947724 14.17568524 7.0625 14.1875 C6.16660156 14.20167969 5.27070312 14.21585938 4.34765625 14.23046875 C2 14 2 14 0 12 C-0.1953125 9.1796875 -0.1953125 9.1796875 -0.125 5.875 C-0.10695312 4.77929688 -0.08890625 3.68359375 -0.0703125 2.5546875 C-0.04710937 1.71164063 -0.02390625 0.86859375 0 0 Z " fill="#557F8D" transform="translate(56,127)"/>
<path d="M0 0 C0.33 0 0.66 0 1 0 C1 15.51 1 31.02 1 47 C3.97 47 6.94 47 10 47 C10 43.7 10 40.4 10 37 C10.33 37 10.66 37 11 37 C11 40.3 11 43.6 11 47 C12.464375 46.835 13.92875 46.67 15.4375 46.5 C20.32180947 46.00529818 25.09345165 45.92086212 30 46 C30 46.66 30 47.32 30 48 C23.73 48 17.46 48 11 48 C11 55.26 11 62.52 11 70 C10.67 70 10.34 70 10 70 C10 62.74 10 55.48 10 48 C4.06 48 -1.88 48 -8 48 C-8 47.67 -8 47.34 -8 47 C-5.36 47 -2.72 47 0 47 C0 31.49 0 15.98 0 0 Z " fill="#EBDDD8" transform="translate(8,2)"/>
<path d="M0 0 C0.99 0 1.98 0 3 0 C3.1875 2.875 3.1875 2.875 3 6 C0 8 0 8 -3 8 C-2.95875 8.78375 -2.9175 9.5675 -2.875 10.375 C-3 13 -3 13 -5 15 C-7.5 15.25 -7.5 15.25 -10 15 C-12 13 -12 13 -12.125 10.375 C-12.08375 9.59125 -12.0425 8.8075 -12 8 C-12.66 7.67 -13.32 7.34 -14 7 C-10.33134759 4.55423173 -8.32799657 4.76392746 -4 5 C-3.34 5.33 -2.68 5.66 -2 6 C-1.34 4.02 -0.68 2.04 0 0 Z " fill="#A4AEAE" transform="translate(103,59)"/>
<path d="M0 0 C4.43715855 -0.14483042 8.87371277 -0.23391752 13.3125 -0.3125 C14.57513672 -0.35439453 15.83777344 -0.39628906 17.13867188 -0.43945312 C18.34716797 -0.45556641 19.55566406 -0.47167969 20.80078125 -0.48828125 C21.91622314 -0.51446533 23.03166504 -0.54064941 24.1809082 -0.56762695 C27 0 27 0 28.82495117 2.46801758 C29.21271729 3.30357178 29.6004834 4.13912598 30 5 C31.81115956 6.81115956 34.61278227 6.38199448 37.0625 6.5625 C38.71958984 6.68818359 38.71958984 6.68818359 40.41015625 6.81640625 C41.26480469 6.87699219 42.11945313 6.93757813 43 7 C43 7.33 43 7.66 43 8 C36.4 8 29.8 8 23 8 C23 9.98 23 11.96 23 14 C23.66 14.33 24.32 14.66 25 15 C22.69 15 20.38 15 18 15 C19.32 14.67 20.64 14.34 22 14 C22 9.71 22 5.42 22 1 C14.74 1 7.48 1 0 1 C0 0.67 0 0.34 0 0 Z " fill="#D9D0CB" transform="translate(83,112)"/>
<path d="M0 0 C2.97 0 5.94 0 9 0 C9 3.63 9 7.26 9 11 C6.03 11 3.06 11 0 11 C0 7.37 0 3.74 0 0 Z " fill="#F8EAE4" transform="translate(96,179)"/>
<path d="M0 0 C2.97 0 5.94 0 9 0 C9 3.63 9 7.26 9 11 C6.03 11 3.06 11 0 11 C0 7.37 0 3.74 0 0 Z " fill="#F8EAE4" transform="translate(57,179)"/>
<path d="M0 0 C2.97 0 5.94 0 9 0 C9 3.63 9 7.26 9 11 C6.03 11 3.06 11 0 11 C0 7.37 0 3.74 0 0 Z " fill="#F8EAE4" transform="translate(9,179)"/>
<path d="M0 0 C2.97 0 5.94 0 9 0 C9 3.63 9 7.26 9 11 C6.03 11 3.06 11 0 11 C0 7.37 0 3.74 0 0 Z " fill="#F8EAE4" transform="translate(96,167)"/>
<path d="M0 0 C2.97 0 5.94 0 9 0 C9 3.63 9 7.26 9 11 C6.03 11 3.06 11 0 11 C0 7.37 0 3.74 0 0 Z " fill="#F8EAE4" transform="translate(57,167)"/>
<path d="M0 0 C2.97 0 5.94 0 9 0 C9 3.63 9 7.26 9 11 C6.03 11 3.06 11 0 11 C0 7.37 0 3.74 0 0 Z " fill="#F8EAE4" transform="translate(9,167)"/>
<path d="M0 0 C2.97 0 5.94 0 9 0 C9 3.63 9 7.26 9 11 C6.03 11 3.06 11 0 11 C0 7.37 0 3.74 0 0 Z " fill="#F8EAE4" transform="translate(96,155)"/>
<path d="M0 0 C2.97 0 5.94 0 9 0 C9 3.63 9 7.26 9 11 C6.03 11 3.06 11 0 11 C0 7.37 0 3.74 0 0 Z " fill="#F8EAE4" transform="translate(57,155)"/>
<path d="M0 0 C2.97 0 5.94 0 9 0 C9 3.63 9 7.26 9 11 C6.03 11 3.06 11 0 11 C0 7.37 0 3.74 0 0 Z " fill="#F8EAE4" transform="translate(106,143)"/>
<path d="M0 0 C2.97 0 5.94 0 9 0 C9 3.63 9 7.26 9 11 C6.03 11 3.06 11 0 11 C0 7.37 0 3.74 0 0 Z " fill="#F8EAE4" transform="translate(9,143)"/>
<path d="M0 0 C2.97 0 5.94 0 9 0 C9 3.63 9 7.26 9 11 C6.03 11 3.06 11 0 11 C0 7.37 0 3.74 0 0 Z " fill="#F9EBE5" transform="translate(183,108)"/>
<path d="M0 0 C2.97 0 5.94 0 9 0 C9 3.63 9 7.26 9 11 C6.03 11 3.06 11 0 11 C0 7.37 0 3.74 0 0 Z " fill="#F9EBE5" transform="translate(144,108)"/>
<path d="M0 0 C2.97 0 5.94 0 9 0 C9 3.63 9 7.26 9 11 C6.03 11 3.06 11 0 11 C0 7.37 0 3.74 0 0 Z " fill="#F9EBE5" transform="translate(9,108)"/>
<path d="M0 0 C2.97 0 5.94 0 9 0 C9 3.63 9 7.26 9 11 C6.03 11 3.06 11 0 11 C0 7.37 0 3.74 0 0 Z " fill="#F9EBE5" transform="translate(183,73)"/>
<path d="M0 0 C2.97 0 5.94 0 9 0 C9 3.63 9 7.26 9 11 C6.03 11 3.06 11 0 11 C0 7.37 0 3.74 0 0 Z " fill="#F9EBE5" transform="translate(144,73)"/>
<path d="M0 0 C2.97 0 5.94 0 9 0 C9 3.63 9 7.26 9 11 C6.03 11 3.06 11 0 11 C0 7.37 0 3.74 0 0 Z " fill="#F9EBE5" transform="translate(57,73)"/>
<path d="M0 0 C2.97 0 5.94 0 9 0 C9 3.63 9 7.26 9 11 C6.03 11 3.06 11 0 11 C0 7.37 0 3.74 0 0 Z " fill="#F9EBE5" transform="translate(9,73)"/>
<path d="M0 0 C2.97 0 5.94 0 9 0 C9 3.63 9 7.26 9 11 C6.03 11 3.06 11 0 11 C0 7.37 0 3.74 0 0 Z " fill="#F8EAE4" transform="translate(9,14)"/>
<path d="M0 0 C2.97 0 5.94 0 9 0 C9 3.63 9 7.26 9 11 C6.03 11 3.06 11 0 11 C0 7.37 0 3.74 0 0 Z " fill="#F8EAE4" transform="translate(183,2)"/>
<path d="M0 0 C2.97 0 5.94 0 9 0 C9 3.63 9 7.26 9 11 C6.03 11 3.06 11 0 11 C0 7.37 0 3.74 0 0 Z " fill="#F8EAE4" transform="translate(154,2)"/>
<path d="M0 0 C2.97 0 5.94 0 9 0 C9 3.63 9 7.26 9 11 C6.03 11 3.06 11 0 11 C0 7.37 0 3.74 0 0 Z " fill="#F8EAE4" transform="translate(106,2)"/>
<path d="M0 0 C2.97 0 5.94 0 9 0 C9 3.63 9 7.26 9 11 C6.03 11 3.06 11 0 11 C0 7.37 0 3.74 0 0 Z " fill="#F8EAE4" transform="translate(96,2)"/>
<path d="M0 0 C2.97 0 5.94 0 9 0 C9 3.63 9 7.26 9 11 C6.03 11 3.06 11 0 11 C0 7.37 0 3.74 0 0 Z " fill="#F8EAE4" transform="translate(57,2)"/>
<path d="M0 0 C2.97 0 5.94 0 9 0 C9 3.63 9 7.26 9 11 C6.03 11 3.06 11 0 11 C0 7.37 0 3.74 0 0 Z " fill="#F8EAE4" transform="translate(9,2)"/>
<path d="M0 0 C2.97 0 5.94 0 9 0 C9.02688151 1.64574566 9.04634123 3.29161413 9.0625 4.9375 C9.07410156 5.85402344 9.08570313 6.77054688 9.09765625 7.71484375 C9 10 9 10 8 11 C5.32941149 11.14115161 2.67567762 11.04247107 0 11 C0 7.37 0 3.74 0 0 Z " fill="#F8EAE4" transform="translate(154,179)"/>
<path d="M0 0 C2.97 0 5.94 0 9 0 C9.02688151 1.64574566 9.04634123 3.29161413 9.0625 4.9375 C9.07410156 5.85402344 9.08570312 6.77054688 9.09765625 7.71484375 C9 10 9 10 8 11 C5.32941149 11.14115161 2.67567762 11.04247107 0 11 C0 7.37 0 3.74 0 0 Z " fill="#F8EAE4" transform="translate(106,179)"/>
<path d="M0 0 C2.97 0 5.94 0 9 0 C9.22786458 2.27864583 9.45572917 4.55729167 9.68359375 6.8359375 C9.89090114 9.04272805 9.89090114 9.04272805 11 11 C6.545 11.495 6.545 11.495 2 12 C-0.35333796 7.29332409 -0.17102038 5.1306114 0 0 Z " fill="#D89593" transform="translate(91,80)"/>
<path d="M0 0 C0.99 0.99 1.98 1.98 3 3 C2.67 3.99 2.34 4.98 2 6 C1.67 5.67 1.34 5.34 1 5 C-3.16990664 4.57218327 -3.16990664 4.57218327 -6.8125 6.3125 C-8.19455846 8.10476225 -8.19455846 8.10476225 -9 11 C-12.3 11 -15.6 11 -19 11 C-19.309375 10.21625 -19.61875 9.4325 -19.9375 8.625 C-20.92875038 6.07669872 -20.92875038 6.07669872 -22 4 C-21.41734375 4.13019531 -20.8346875 4.26039062 -20.234375 4.39453125 C-12.38659562 5.71483376 -7.00659944 3.47922206 0 0 Z " fill="#E6E9E9" transform="translate(110,88)"/>
<path d="M0 0 C2.97 0 5.94 0 9 0 C9 3.3 9 6.6 9 10 C6.03 10 3.06 10 0 10 C0 6.7 0 3.4 0 0 Z " fill="#F9EBE5" transform="translate(183,132)"/>
<path d="M0 0 C2.97 0 5.94 0 9 0 C9 3.3 9 6.6 9 10 C6.03 10 3.06 10 0 10 C0 6.7 0 3.4 0 0 Z " fill="#F9EBE5" transform="translate(183,120)"/>
<path d="M0 0 C2.97 0 5.94 0 9 0 C9 3.3 9 6.6 9 10 C6.03 10 3.06 10 0 10 C0 6.7 0 3.4 0 0 Z " fill="#F9EBE5" transform="translate(144,97)"/>
<path d="M0 0 C2.97 0 5.94 0 9 0 C9 3.3 9 6.6 9 10 C6.03 10 3.06 10 0 10 C0 6.7 0 3.4 0 0 Z " fill="#F9EBE5" transform="translate(57,97)"/>
<path d="M0 0 C2.97 0 5.94 0 9 0 C9 3.3 9 6.6 9 10 C6.03 10 3.06 10 0 10 C0 6.7 0 3.4 0 0 Z " fill="#F8EAE4" transform="translate(154,85)"/>
<path d="M0 0 C2.97 0 5.94 0 9 0 C9 3.3 9 6.6 9 10 C6.03 10 3.06 10 0 10 C0 6.7 0 3.4 0 0 Z " fill="#F9EBE5" transform="translate(144,85)"/>
<path d="M0 0 C2.97 0 5.94 0 9 0 C9 3.3 9 6.6 9 10 C6.03 10 3.06 10 0 10 C0 6.7 0 3.4 0 0 Z " fill="#F9EBE5" transform="translate(57,85)"/>
<path d="M0 0 C2.97 0 5.94 0 9 0 C9 3.3 9 6.6 9 10 C6.03 10 3.06 10 0 10 C0 6.7 0 3.4 0 0 Z " fill="#F9EBE5" transform="translate(9,85)"/>
<path d="M0 0 C2.97 0 5.94 0 9 0 C9 3.3 9 6.6 9 10 C6.03 10 3.06 10 0 10 C0 6.7 0 3.4 0 0 Z " fill="#F9EBE5" transform="translate(144,62)"/>
<path d="M0 0 C2.97 0 5.94 0 9 0 C9 3.3 9 6.6 9 10 C6.03 10 3.06 10 0 10 C0 6.7 0 3.4 0 0 Z " fill="#F8EAE4" transform="translate(154,50)"/>
<path d="M0 0 C2.97 0 5.94 0 9 0 C9 3.3 9 6.6 9 10 C6.03 10 3.06 10 0 10 C0 6.7 0 3.4 0 0 Z " fill="#F9EBE5" transform="translate(144,50)"/>
<path d="M0 0 C2.64 0 5.28 0 8 0 C8 3.63 8 7.26 8 11 C5.36 11 2.72 11 0 11 C0 7.37 0 3.74 0 0 Z " fill="#F9EBE5" transform="translate(0,108)"/>
<path d="M0 0 C2.64 0 5.28 0 8 0 C8 3.63 8 7.26 8 11 C5.36 11 2.72 11 0 11 C0 7.37 0 3.74 0 0 Z " fill="#F9EBE5" transform="translate(0,73)"/>
<path d="M0 0 C1.32 0.33 2.64 0.66 4 1 C3.95875 1.928125 3.9175 2.85625 3.875 3.8125 C3.72863661 7.15809719 3.72863661 7.15809719 6 10 C9.58357241 10.25015873 9.58357241 10.25015873 13 10 C12.67 11.32 12.34 12.64 12 14 C9.98177083 13.96744792 7.96354167 13.93489583 5.9453125 13.90234375 C3.91814596 13.87350758 3.91814596 13.87350758 2 15 C2 14.34 2 13.68 2 13 C-0.97 12.67 -3.94 12.34 -7 12 C-7 11.67 -7 11.34 -7 11 C-5.02 10.34 -3.04 9.68 -1 9 C-0.67 6.03 -0.34 3.06 0 0 Z " fill="#E5DCD8" transform="translate(83,130)"/>
<path d="M0 0 C3.96 0 7.92 0 12 0 C12 1.98 12 3.96 12 6 C7.05 6 2.1 6 -3 6 C-2 4 -1 2 0 0 Z " fill="#F7E9E3" transform="translate(83,113)"/>
<path d="M0 0 C2.64 0 5.28 0 8 0 C8 0.99 8 1.98 8 3 C6.02 3 4.04 3 2 3 C2 3.99 2 4.98 2 6 C3.65 6 5.3 6 7 6 C7 6.99 7 7.98 7 9 C5.68 9 4.36 9 3 9 C3 9.66 3 10.32 3 11 C4.65 11.33 6.3 11.66 8 12 C8 12.66 8 13.32 8 14 C5.36 14 2.72 14 0 14 C0 9.38 0 4.76 0 0 Z " fill="#3C6E80" transform="translate(46,127)"/>
<path d="M0 0 C0.99 0 1.98 0 3 0 C3 3.63 3 7.26 3 11 C4.32 10.67 5.64 10.34 7 10 C7.33 6.7 7.66 3.4 8 0 C8.66 0 9.32 0 10 0 C10.05410687 1.77049689 10.09284119 3.54146849 10.125 5.3125 C10.14820313 6.29863281 10.17140625 7.28476563 10.1953125 8.30078125 C10 11 10 11 8 14 C5 14.375 5 14.375 2 14 C-0.28062828 10.57905758 -0.21925007 9.31812778 -0.125 5.3125 C-0.10695312 4.31863281 -0.08890625 3.32476562 -0.0703125 2.30078125 C-0.04710937 1.54152344 -0.02390625 0.78226562 0 0 Z " fill="#4F7B8A" transform="translate(137,127)"/>
<path d="M0 0 C0.33 0 0.66 0 1 0 C1 4.95 1 9.9 1 15 C1.66 14.67 2.32 14.34 3 14 C5.3329866 13.95977609 7.66706666 13.95679753 10 14 C10 14.33 10 14.66 10 15 C8.35 15 6.7 15 5 15 C4.67 15.99 4.34 16.98 4 18 C3.67 17.34 3.34 16.68 3 16 C-1.29 16 -5.58 16 -10 16 C-9.67 15.34 -9.34 14.68 -9 14 C-8.34 14 -7.68 14 -7 14 C-7 12.02 -7 10.04 -7 8 C-5.35 8 -3.7 8 -2 8 C-1.67 9.98 -1.34 11.96 -1 14 C-0.67 9.38 -0.34 4.76 0 0 Z " fill="#DDD7D5" transform="translate(43,127)"/>
<path d="M0 0 C2.31 0 4.62 0 7 0 C7 0.99 7 1.98 7 3 C5.35 3 3.7 3 2 3 C2 3.99 2 4.98 2 6 C3.65 6 5.3 6 7 6 C6.67 6.99 6.34 7.98 6 9 C5.01 9 4.02 9 3 9 C3 9.66 3 10.32 3 11 C4.65 11.33 6.3 11.66 8 12 C8 12.66 8 13.32 8 14 C5.36 14 2.72 14 0 14 C0 9.38 0 4.76 0 0 Z " fill="#3E7080" transform="translate(161,127)"/>
<path d="M0 0 C3.63 0 7.26 0 11 0 C10.67 1.98 10.34 3.96 10 6 C8.02 6 6.04 6 4 6 C3.67 7.32 3.34 8.64 3 10 C2.01 10 1.02 10 0 10 C0 6.7 0 3.4 0 0 Z " fill="#F7EAE4" transform="translate(19,120)"/>
<path d="M0 0 C1.65 0 3.3 0 5 0 C5.33 1.32 5.66 2.64 6 4 C4.35 3.67 2.7 3.34 1 3 C1.88289387 5.25929199 1.88289387 5.25929199 4.5625 6.3125 C5.366875 6.869375 6.17125 7.42625 7 8 C7.375 10.625 7.375 10.625 7 13 C6 14 6 14 2.9375 14.0625 C1.968125 14.041875 0.99875 14.02125 0 14 C-0.66 12.68 -1.32 11.36 -2 10 C0.97 10.495 0.97 10.495 4 11 C4.33 10.34 4.66 9.68 5 9 C4.195625 8.855625 3.39125 8.71125 2.5625 8.5625 C0 8 0 8 -1 7 C-0.71269945 4.66055264 -0.38063221 2.3260857 0 0 Z " fill="#487686" transform="translate(151,127)"/>
<path d="M0 0 C0.66 0 1.32 0 2 0 C2 1.65 2 3.3 2 5 C3.65 5 5.3 5 7 5 C7 3.35 7 1.7 7 0 C7.66 0 8.32 0 9 0 C9 4.62 9 9.24 9 14 C8.34 14 7.68 14 7 14 C7 12.02 7 10.04 7 8 C5.35 8 3.7 8 2 8 C2 9.98 2 11.96 2 14 C1.34 14 0.68 14 0 14 C0 9.38 0 4.76 0 0 Z " fill="#477585" transform="translate(111,127)"/>
<path d="M0 0 C1.175625 0.0825 2.35125 0.165 3.5625 0.25 C5.5625 3.25 5.5625 3.25 5.1875 5.9375 C4.98125 6.700625 4.775 7.46375 4.5625 8.25 C-1.0625 9.375 -1.0625 9.375 -4.4375 8.25 C-4.47991723 5.91705225 -4.47842937 3.58297433 -4.4375 1.25 C-3.4375 0.25 -3.4375 0.25 0 0 Z " fill="#F1F3F3" transform="translate(84.4375,93.75)"/>
<path d="M0 0 C3 0.25 3 0.25 5 2.25 C5.25 4.75 5.25 4.75 5 7.25 C3 9.25 3 9.25 0.375 9.375 C-0.40875 9.33375 -1.1925 9.2925 -2 9.25 C-2.33 7.93 -2.66 6.61 -3 5.25 C-3.66 5.91 -4.32 6.57 -5 7.25 C-5.125 4.875 -5.125 4.875 -5 2.25 C-3 0.25 -3 0.25 0 0 Z " fill="#F5F6F6" transform="translate(108,93.75)"/>
<path d="M0 0 C0.66 0 1.32 0 2 0 C2 1.98 2 3.96 2 6 C3.65 6 5.3 6 7 6 C7 4.02 7 2.04 7 0 C7.66 0 8.32 0 9 0 C9 4.95 9 9.9 9 15 C8.34 14.67 7.68 14.34 7 14 C7 12.02 7 10.04 7 8 C5.35 8 3.7 8 2 8 C2 9.98 2 11.96 2 14 C1.34 14 0.68 14 0 14 C0 9.38 0 4.76 0 0 Z " fill="#417182" transform="translate(34,127)"/>
<path d="M0 0 C1.98 0 3.96 0 6 0 C6.33 3.3 6.66 6.6 7 10 C4.69 10 2.38 10 0 10 C0 6.7 0 3.4 0 0 Z " fill="#F9EBE5" transform="translate(19,132)"/>
<path d="M0 0 C-1 2 -1 2 -4.0625 3.125 C-5.031875 3.41375 -6.00125 3.7025 -7 4 C-7 4.99 -7 5.98 -7 7 C-6.34 6.67 -5.68 6.34 -5 6 C-5 7.98 -5 9.96 -5 12 C-4.01 12.33 -3.02 12.66 -2 13 C-7.75 12.25 -7.75 12.25 -10 10 C-12.43252661 9.53837573 -12.43252661 9.53837573 -15.125 9.375 C-16.03507812 9.30023438 -16.94515625 9.22546875 -17.8828125 9.1484375 C-18.58148438 9.09945312 -19.28015625 9.05046875 -20 9 C-20 8.67 -20 8.34 -20 8 C-16.7 8 -13.4 8 -10 8 C-9.8453125 6.576875 -9.8453125 6.576875 -9.6875 5.125 C-8.4446895 -0.52413861 -5.05341719 -0.22459632 0 0 Z " fill="#49666B" transform="translate(111,92)"/>
<path d="M0 0 C0.33 0 0.66 0 1 0 C1.07347656 1.03060547 1.07347656 1.03060547 1.1484375 2.08203125 C1.22320312 2.98308594 1.29796875 3.88414062 1.375 4.8125 C1.44460937 5.70582031 1.51421875 6.59914062 1.5859375 7.51953125 C1.86645036 10.24398499 1.86645036 10.24398499 4 13 C4.99 13.66 5.98 14.32 7 15 C3.04 15 -0.92 15 -5 15 C-4.34 13.68 -3.68 12.36 -3 11 C-2.55188863 8.64435404 -2.55188863 8.64435404 -2.375 6.25 C-2.30023438 5.45078125 -2.22546875 4.6515625 -2.1484375 3.828125 C-2.09945312 3.22484375 -2.05046875 2.6215625 -2 2 C-1.34 2 -0.68 2 0 2 C0 1.34 0 0.68 0 0 Z " fill="#EBE1DC" transform="translate(136,128)"/>
<path d="M0 0 C2.31 0 4.62 0 7 0 C7 0.99 7 1.98 7 3 C5.35 3 3.7 3 2 3 C2 3.99 2 4.98 2 6 C3.65 6.33 5.3 6.66 7 7 C7 7.66 7 8.32 7 9 C5.35 9 3.7 9 2 9 C2 10.65 2 12.3 2 14 C1.34 14 0.68 14 0 14 C0 9.38 0 4.76 0 0 Z " fill="#487686" transform="translate(101,127)"/>
<path d="M0 0 C0.33 0 0.66 0 1 0 C1 4.62 1 9.24 1 14 C1.66 14 2.32 14 3 14 C3 12.35 3 10.7 3 9 C4.32 9.33 5.64 9.66 7 10 C6.67 11.65 6.34 13.3 6 15 C7.093125 14.79375 8.18625 14.5875 9.3125 14.375 C13 14 13 14 16 16 C14.27185839 16.19672365 12.54240803 16.38196799 10.8125 16.5625 C9.84957031 16.66691406 8.88664062 16.77132812 7.89453125 16.87890625 C5 17 5 17 0 16 C0 10.72 0 5.44 0 0 Z " fill="#CFCDCC" transform="translate(100,127)"/>
<path d="M0 0 C2.97 0 5.94 0 9 0 C9 1.98 9 3.96 9 6 C6.03 6 3.06 6 0 6 C0 4.02 0 2.04 0 0 Z " fill="#F9EBE5" transform="translate(96,113)"/>
<path d="M0 0 C0.33 0.99 0.66 1.98 1 3 C1.99 3.33 2.98 3.66 4 4 C3.95875 5.0725 3.9175 6.145 3.875 7.25 C3.9885825 10.65747485 4.21273364 12.20739631 6 15 C3.69 15 1.38 15 -1 15 C-0.67 10.05 -0.34 5.1 0 0 Z " fill="#DAD6D4" transform="translate(69,127)"/>
<path d="M0 0 C3.63 0 7.26 0 11 0 C11 1.32 11 2.64 11 4 C8.49698229 5.18198059 6.60398817 6.0172568 3.8125 5.9375 C2 5 2 5 0 0 Z " fill="#F4E7E1" transform="translate(84,38)"/>
<path d="M0 0 C1.32 0 2.64 0 4 0 C4.38063221 2.3260857 4.71269945 4.66055264 5 7 C4 8 4 8 1.4375 8.0625 C0.633125 8.041875 -0.17125 8.02125 -1 8 C-1.625 5.125 -1.625 5.125 -2 2 C-1.34 1.34 -0.68 0.68 0 0 Z " fill="#EAE0DC" transform="translate(127,130)"/>
<path d="M0 0 C0.33 0.66 0.66 1.32 1 2 C1.66 2 2.32 2 3 2 C3.33 1.34 3.66 0.68 4 0 C4 4.29 4 8.58 4 13 C1 11 1 11 0.0625 8.5 C-0.77763578 5.85479785 -0.77763578 5.85479785 -3.125 4.6875 C-3.74375 4.460625 -4.3625 4.23375 -5 4 C-5 3.34 -5 2.68 -5 2 C-2.525 2.495 -2.525 2.495 0 3 C0 2.01 0 1.02 0 0 Z " fill="#CBCCCB" transform="translate(157,128)"/>
<path d="M0 0 C1.32 0 2.64 0 4 0 C4.33 2.31 4.66 4.62 5 7 C2.625 7.625 2.625 7.625 0 8 C-0.66 7.34 -1.32 6.68 -2 6 C-1.44444444 1.44444444 -1.44444444 1.44444444 0 0 Z " fill="#E1DAD6" transform="translate(76,130)"/>
<path d="M0 0 C0.33 0.99 0.66 1.98 1 3 C5.29 3 9.58 3 14 3 C14 3.66 14 4.32 14 5 C11.77100213 5.16890918 9.54179338 5.33503687 7.3125 5.5 C5.45044922 5.63921875 5.45044922 5.63921875 3.55078125 5.78125 C0.68500671 5.95779937 -2.13099957 6.04388528 -5 6 C-5 5.01 -5 4.02 -5 3 C-3.35 3 -1.7 3 0 3 C0 2.01 0 1.02 0 0 Z " fill="#F1E3DE" transform="translate(168,127)"/>
<path d="M0 0 C1.32 0.33 2.64 0.66 4 1 C3.34 1 2.68 1 2 1 C2 3.64 2 6.28 2 9 C1.195625 9.12375 0.39125 9.2475 -0.4375 9.375 C-1.283125 9.58125 -2.12875 9.7875 -3 10 C-4.24546405 12.49092811 -3.7767578 13.41080733 -3 16 C-1.68 16.33 -0.36 16.66 1 17 C-0.65 17.33 -2.3 17.66 -4 18 C-4.66 16.35 -5.32 14.7 -6 13 C-7.65 13 -9.3 13 -11 13 C-9.33784732 11.66104368 -7.67036393 10.32869858 -6 9 C-5.29875 8.4225 -4.5975 7.845 -3.875 7.25 C-2 6 -2 6 1 6 C0.67 4.02 0.34 2.04 0 0 Z " fill="#5C7070" transform="translate(117,76)"/>
<path d="M0 0 C0.99 0 1.98 0 3 0 C3 1.32 3 2.64 3 4 C3.66 4 4.32 4 5 4 C5 6.31 5 8.62 5 11 C3.35 11 1.7 11 0 11 C0 7.37 0 3.74 0 0 Z " fill="#F0E4DE" transform="translate(67,73)"/>
<path d="M0 0 C2.97 0 5.94 0 9 0 C9 1.65 9 3.3 9 5 C6.21176345 6.0326802 5.1322726 6.04509293 2.25 5.0625 C1.5075 4.711875 0.765 4.36125 0 4 C0 2.68 0 1.36 0 0 Z " fill="#F6E8E2" transform="translate(96,38)"/>
<path d="M0 0 C2.64 0 5.28 0 8 0 C8 0.99 8 1.98 8 3 C7.01 3 6.02 3 5 3 C5 6.63 5 10.26 5 14 C4.34 14 3.68 14 3 14 C3 10.37 3 6.74 3 3 C2.01 3 1.02 3 0 3 C0 2.01 0 1.02 0 0 Z " fill="#457484" transform="translate(23,127)"/>
<path d="M0 0 C1.67542976 0.28604898 3.34385343 0.61781233 5 1 C5 2.98 5 4.96 5 7 C3.34385343 7.38218767 1.67542976 7.71395102 0 8 C-1 7 -1 7 -1.125 4 C-1 1 -1 1 0 0 Z " fill="#EEE3DE" transform="translate(90,130)"/>
<path d="M0 0 C0.66 0 1.32 0 2 0 C2.125 2.375 2.125 2.375 2 5 C0 7 0 7 -2.5 7.25 C-5 7 -5 7 -7 5 C-6.625 2.875 -6.625 2.875 -6 1 C-3.03 1.495 -3.03 1.495 0 2 C0 1.34 0 0.68 0 0 Z " fill="#425A5B" transform="translate(98,67)"/>
<path d="M0 0 C2.64 0 5.28 0 8 0 C6.55922954 3.36179774 4.75249979 5.59156268 2 8 C1.34 8 0.68 8 0 8 C0 5.36 0 2.72 0 0 Z " fill="#F3E6E1" transform="translate(67,38)"/>
<path d="M0 0 C0.66 0 1.32 0 2 0 C2.66 1.98 3.32 3.96 4 6 C5.98 6 7.96 6 10 6 C9.67 7.32 9.34 8.64 9 10 C3.63157895 10.35789474 3.63157895 10.35789474 1.125 8.9375 C-0.58196395 5.99772876 -0.18799766 3.32129197 0 0 Z " fill="#487686" transform="translate(72,131)"/>
<path d="M0 0 C2.76276177 0.52268466 5.3260876 1.10869587 8 2 C9.6875 4.5625 9.6875 4.5625 11 7 C10.01 7.495 10.01 7.495 9 8 C8.67 7.34 8.34 6.68 8 6 C5.87423218 5.53348793 5.87423218 5.53348793 3.4375 5.375 C2.61121094 5.30023438 1.78492187 5.22546875 0.93359375 5.1484375 C0.29550781 5.09945312 -0.34257813 5.05046875 -1 5 C-0.67 3.35 -0.34 1.7 0 0 Z " fill="#5E7374" transform="translate(80,89)"/>
<path d="M0 0 C0.33 0 0.66 0 1 0 C1.33 2.31 1.66 4.62 2 7 C5.465 6.505 5.465 6.505 9 6 C8.67 7.32 8.34 8.64 8 10 C2.6 10.36 2.6 10.36 0.125 8.875 C-1.48515263 6.19141229 -1.26647742 4.06449028 -1 1 C-0.67 0.67 -0.34 0.34 0 0 Z " fill="#467485" transform="translate(124,131)"/>
<path d="M0 0 C6.46153846 0.46153846 6.46153846 0.46153846 9 3 C8.625 5.125 8.625 5.125 8 7 C7.38125 6.2575 7.38125 6.2575 6.75 5.5 C4.87797662 3.56613908 4.87797662 3.56613908 1 4 C0.67 5.65 0.34 7.3 0 9 C-0.33 9 -0.66 9 -1 9 C-1.625 5.625 -1.625 5.625 -2 2 C-1.34 1.34 -0.68 0.68 0 0 Z " fill="#567F8D" transform="translate(89,127)"/>
<path d="M0 0 C0.33 0.99 0.66 1.98 1 3 C4.3 3 7.6 3 11 3 C11 3.33 11 3.66 11 4 C7.7 4 4.4 4 1 4 C0.67 5.32 0.34 6.64 0 8 C-2.70879335 9.35439668 -5.00933268 9.06501451 -8 9 C-8.33 8.34 -8.66 7.68 -9 7 C-7.02 7 -5.04 7 -3 7 C-2.67 5.68 -2.34 4.36 -2 3 C-1.67 3.66 -1.34 4.32 -1 5 C-0.67 3.35 -0.34 1.7 0 0 Z " fill="#3A5659" transform="translate(90,96)"/>
<path d="M0 0 C0.33 0.66 0.66 1.32 1 2 C1.66 2 2.32 2 3 2 C3.061875 2.61875 3.12375 3.2375 3.1875 3.875 C3.828919 6.27761141 3.828919 6.27761141 6.5625 7.25 C7.366875 7.4975 8.17125 7.745 9 8 C8.67 8.99 8.34 9.98 8 11 C2.25 9.125 2.25 9.125 0 8 C0 5.36 0 2.72 0 0 Z " fill="#DBD7D4" transform="translate(147,128)"/>
<path d="M0 0 C0.66 0 1.32 0 2 0 C2 4.29 2 8.58 2 13 C0.68 13 -0.64 13 -2 13 C-1.855625 12.34 -1.71125 11.68 -1.5625 11 C-0.87700084 7.34400449 -0.43824485 3.69377805 0 0 Z " fill="#EFE4DF" transform="translate(98,130)"/>
<path d="M0 0 C0.66 0 1.32 0 2 0 C3.49524178 2.2727675 4.78399715 4.5679943 6 7 C3.03 7 0.06 7 -3 7 C-1.125 2.25 -1.125 2.25 0 0 Z " fill="#F0E4DF" transform="translate(147,136)"/>
<path d="M0 0 C0.99 0 1.98 0 3 0 C3.33 3.3 3.66 6.6 4 10 C2.35 10 0.7 10 -1 10 C-1.09978121 6.50765756 -0.77842938 3.40562852 0 0 Z " fill="#F7E9E4" transform="translate(107,132)"/>
<path d="M0 0 C0.99 0.33 1.98 0.66 3 1 C3 3.33333333 3 5.66666667 3 8 C3.66 8 4.32 8 5 8 C5 6.35 5 4.7 5 3 C5.66 3.66 6.32 4.32 7 5 C6.625 7.125 6.625 7.125 6 9 C3.69 8.67 1.38 8.34 -1 8 C-1.04241723 5.66705225 -1.04092937 3.33297433 -1 1 C-0.67 0.67 -0.34 0.34 0 0 Z " fill="#DADEDF" transform="translate(81,94)"/>
<path d="M0 0 C0.33 0 0.66 0 1 0 C1 4.95 1 9.9 1 15 C1.66 14.67 2.32 14.34 3 14 C5.3329866 13.95977609 7.66706666 13.95679753 10 14 C10 14.33 10 14.66 10 15 C8.35 15 6.7 15 5 15 C4.67 15.99 4.34 16.98 4 18 C3.67 17.34 3.34 16.68 3 16 C1.35 16 -0.3 16 -2 16 C-1.67 15.34 -1.34 14.68 -1 14 C-0.76970044 11.62876754 -0.58880058 9.25258057 -0.4375 6.875 C-0.35371094 5.59367188 -0.26992188 4.31234375 -0.18359375 2.9921875 C-0.09271484 1.51105469 -0.09271484 1.51105469 0 0 Z " fill="#B8BFC0" transform="translate(43,127)"/>
<path d="M0 0 C0.33 0 0.66 0 1 0 C1 3.3 1 6.6 1 10 C0.01 9.01 -0.98 8.02 -2 7 C-2 6.34 -2 5.68 -2 5 C-3.65 5 -5.3 5 -7 5 C-7 4.01 -7 3.02 -7 2 C-4.69 2 -2.38 2 0 2 C0 1.34 0 0.68 0 0 Z " fill="#D8D4D1" transform="translate(55,128)"/>
<path d="M0 0 C3.24271506 0.5590888 4.93057424 1.4132178 7 4 C7 4.66 7 5.32 7 6 C4.69 6 2.38 6 0 6 C0 4.02 0 2.04 0 0 Z " fill="#F0E4DE" transform="translate(106,113)"/>
<path d="M0 0 C0.33 0 0.66 0 1 0 C0.42934122 6.41991126 -1.67344909 12.01589463 -4 18 C-4.66 18 -5.32 18 -6 18 C-5.5978125 16.8553125 -5.5978125 16.8553125 -5.1875 15.6875 C-3.86795594 11.58996845 -2.76837434 7.45785174 -1.68359375 3.29296875 C-1 1 -1 1 0 0 Z " fill="#677979" transform="translate(76,58)"/>
<path d="M0 0 C0.33 0 0.66 0 1 0 C1 3.3 1 6.6 1 10 C1.66 10 2.32 10 3 10 C3.33 9.34 3.66 8.68 4 8 C4 9.65 4 11.3 4 13 C2.35 13 0.7 13 -1 13 C-0.67 8.71 -0.34 4.42 0 0 Z " fill="#D8D3D1" transform="translate(37,120)"/>
<path d="M0 0 C0.66 0 1.32 0 2 0 C3.31626692 3.61973402 4 6.09567131 4 10 C2.68 10 1.36 10 0 10 C0 6.7 0 3.4 0 0 Z " fill="#F3E6E0" transform="translate(67,97)"/>
<path d="M0 0 C0.37125 0.495 0.7425 0.99 1.125 1.5 C3.74694393 3.59755514 5.73842472 3.21743835 9 3 C9 2.34 9 1.68 9 1 C9.99 0.67 10.98 0.34 12 0 C10.84826645 2.46800047 9.95216435 4.04783565 8 6 C5.07908607 6.37447615 3.60409928 6.4374512 1.1875 4.6875 C0 3 0 3 0 0 Z " fill="#516768" transform="translate(71,113)"/>
<path d="M0 0 C1.65 0 3.3 0 5 0 C3.68 0.33 2.36 0.66 1 1 C1 1.66 1 2.32 1 3 C2.65 3.33 4.3 3.66 6 4 C6 4.66 6 5.32 6 6 C3.69 6 1.38 6 -1 6 C-0.67 4.02 -0.34 2.04 0 0 Z " fill="#6C8D99" transform="translate(48,135)"/>
<path d="M0 0 C1.98 0.495 1.98 0.495 4 1 C3.01 1 2.02 1 1 1 C1 1.66 1 2.32 1 3 C2.65 3.33 4.3 3.66 6 4 C6 4.66 6 5.32 6 6 C3.69 6 1.38 6 -1 6 C-0.67 4.02 -0.34 2.04 0 0 Z " fill="#6C8D98" transform="translate(163,135)"/>
<path d="M0 0 C0.33 0.66 0.66 1.32 1 2 C1.99 2 2.98 2 4 2 C4 5.63 4 9.26 4 13 C3.67 13 3.34 13 3 13 C3 10.03 3 7.06 3 4 C1.02 4 -0.96 4 -3 4 C-3 3.34 -3 2.68 -3 2 C-2.01 2 -1.02 2 0 2 C0 1.34 0 0.68 0 0 Z " fill="#DDD7D4" transform="translate(22,128)"/>
<path d="M0 0 C2.64 0 5.28 0 8 0 C8 0.99 8 1.98 8 3 C6.02 3 4.04 3 2 3 C1.67 3.99 1.34 4.98 1 6 C0.67 4.02 0.34 2.04 0 0 Z " fill="#517C8A" transform="translate(46,127)"/>
<path d="M0 0 C-1 2 -1 2 -4.0625 3.125 C-5.5165625 3.558125 -5.5165625 3.558125 -7 4 C-7.33 5.65 -7.66 7.3 -8 9 C-8.66 8.01 -9.32 7.02 -10 6 C-9.25 3.375 -9.25 3.375 -8 1 C-5.29120665 -0.35439668 -2.99066732 -0.06501451 0 0 Z " fill="#617576" transform="translate(111,92)"/>
<path d="M0 0 C0.99 0.99 1.98 1.98 3 3 C2.67 3.99 2.34 4.98 2 6 C1.67 5.67 1.34 5.34 1 5 C-1.33297433 4.95907063 -3.66705225 4.95758277 -6 5 C-6.33 4.34 -6.66 3.68 -7 3 C-4.69 2.01 -2.38 1.02 0 0 Z " fill="#D1D7D7" transform="translate(110,88)"/>
<path d="M0 0 C2.31 0 4.62 0 7 0 C7.22036864 3.85645121 6.60355101 6.49223216 5 10 C4.67 10 4.34 10 4 10 C4 7.03 4 4.06 4 1 C2.68 0.67 1.36 0.34 0 0 Z " fill="#425556" transform="translate(96,79)"/>
<path d="M0 0 C1.32 0.33 2.64 0.66 4 1 C4 2.65 4 4.3 4 6 C2.68 6 1.36 6 0 6 C0 4.02 0 2.04 0 0 Z " fill="#566C6D" transform="translate(85,59)"/>
<path d="M0 0 C2.31 0 4.62 0 7 0 C7 0.99 7 1.98 7 3 C5.35 3 3.7 3 2 3 C1.67 3.66 1.34 4.32 1 5 C0.67 3.35 0.34 1.7 0 0 Z " fill="#467585" transform="translate(161,127)"/>
<path d="M0 0 C1.32 0 2.64 0 4 0 C4 1.65 4 3.3 4 5 C2.68 5.33 1.36 5.66 0 6 C0 4.02 0 2.04 0 0 Z " fill="#F3E7E2" transform="translate(77,132)"/>
<path d="M0 0 C1.32 0.33 2.64 0.66 4 1 C3.34 1 2.68 1 2 1 C2 3.64 2 6.28 2 9 C0.02 9 -1.96 9 -4 9 C-3.34 8.01 -2.68 7.02 -2 6 C-1.01 6 -0.02 6 1 6 C0.67 4.02 0.34 2.04 0 0 Z " fill="#4C6262" transform="translate(117,76)"/>
<path d="M0 0 C1.32 0 2.64 0 4 0 C5.42944945 2.35438733 6.08661261 3.48032433 5.625 6.25 C5.41875 6.8275 5.2125 7.405 5 8 C0 2.25 0 2.25 0 0 Z " fill="#DD9E9D" transform="translate(106,47)"/>
<path d="M0 0 C0 1.65 0 3.3 0 5 C-1.98 5.99 -1.98 5.99 -4 7 C-4 5.02 -4 3.04 -4 1 C-1 0 -1 0 0 0 Z " fill="#B5BFBF" transform="translate(113,96)"/>
<path d="M0 0 C0.66 0.33 1.32 0.66 2 1 C1.67 3.31 1.34 5.62 1 8 C0.34 8 -0.32 8 -1 8 C-1.66 6.35 -2.32 4.7 -3 3 C-2.01 2.01 -1.02 1.02 0 0 Z " fill="#E3D9D3" transform="translate(115,84)"/>
<path d="M0 0 C-0.33 0.99 -0.66 1.98 -1 3 C-3.5625 4.1875 -3.5625 4.1875 -6 5 C-6.99 4.01 -7.98 3.02 -9 2 C-5.5647952 -0.29013653 -4.014669 -0.17842973 0 0 Z " fill="#718384" transform="translate(98,64)"/>
<path d="M0 0 C0.99 0.33 1.98 0.66 3 1 C1.62845496 3.95409701 0.01136276 6.44008376 -2 9 C-1.125 2.25 -1.125 2.25 0 0 Z " fill="#E09E9C" transform="translate(81,47)"/>
<path d="M0 0 C0.99 0 1.98 0 3 0 C3 1.98 3 3.96 3 6 C2.01 6.33 1.02 6.66 0 7 C0 4.69 0 2.38 0 0 Z " fill="#3E5657" transform="translate(103,59)"/>
<path d="M0 0 C1.485 0.99 1.485 0.99 3 2 C4.65549531 2.38499891 6.3222433 2.72793135 8 3 C8 3.66 8 4.32 8 5 C5.69 5 3.38 5 1 5 C0.67 3.35 0.34 1.7 0 0 Z " fill="#D6D2D0" transform="translate(123,138)"/>
<path d="M0 0 C1.80330533 3.60661066 2.46599103 6.08393425 3 10 C1.68 9.67 0.36 9.34 -1 9 C-0.67 6.03 -0.34 3.06 0 0 Z " fill="#F7EAE4" transform="translate(121,132)"/>
<path d="M0 0 C1.125 3.75 1.125 3.75 0 6 C-1.65 6 -3.3 6 -5 6 C-5 5.01 -5 4.02 -5 3 C-3.35 3 -1.7 3 0 3 C0 2.01 0 1.02 0 0 Z " fill="#C9CAC9" transform="translate(168,127)"/>
<path d="M0 0 C3.37462715 0.54723683 5.08235 1.0549 8 3 C3.545 3.495 3.545 3.495 -1 4 C-0.67 2.68 -0.34 1.36 0 0 Z " fill="#D5DADA" transform="translate(80,89)"/>
<path d="M0 0 C0 0.33 0 0.66 0 1 C-5.52967941 1.71033431 -10.49983036 2.30267176 -16 1 C-16 0.67 -16 0.34 -16 0 C-10.49983036 -1.30267176 -5.52967941 -0.71033431 0 0 Z " fill="#EFE1DC" transform="translate(56,49)"/>
<path d="M0 0 C0.33 0.99 0.66 1.98 1 3 C0.34 3.66 -0.32 4.32 -1 5 C-2.32 5 -3.64 5 -5 5 C-5 4.01 -5 3.02 -5 2 C-3.35 2 -1.7 2 0 2 C0 1.34 0 0.68 0 0 Z " fill="#E0D8D5" transform="translate(108,128)"/>
</svg>
